<?xml version="1.0" encoding="UTF-8" standalone="no"?>
<svg xmlns:rdf="http://www.w3.org/1999/02/22-rdf-syntax-ns#" xmlns="http://www.w3.org/2000/svg" height="172mm" width="186mm" version="1.1" xmlns:cc="http://creativecommons.org/ns#" xmlns:xlink="http://www.w3.org/1999/xlink" viewBox="0 0 660.21598 609.28873" xmlns:dc="http://purl.org/dc/elements/1.1/">
 <defs>
  <marker id="marker11224" refY="0" refX="0" overflow="visible" orient="auto">
   <path stroke-linejoin="round" d="m8.72 4.03-10.9-4.01 10.9-4.02c-1.75 2.37-1.74 5.62-6e-7 8.04z" fill-rule="evenodd" transform="matrix(-.3 0 0 -.3 .69 0)" stroke="#80a" stroke-width=".625" fill="#80a"/>
  </marker>
  <marker id="marker11098" refY="0" refX="0" overflow="visible" orient="auto">
   <path stroke-linejoin="round" d="m8.72 4.03-10.9-4.01 10.9-4.02c-1.75 2.37-1.74 5.62-6e-7 8.04z" fill-rule="evenodd" transform="matrix(-.3 0 0 -.3 .69 0)" stroke="#00aad4" stroke-width=".625" fill="#00aad4"/>
  </marker>
  <marker id="Arrow2Send" refY="0" refX="0" overflow="visible" orient="auto">
   <path stroke-linejoin="round" d="m8.72 4.03-10.9-4.01 10.9-4.02c-1.75 2.37-1.74 5.62-6e-7 8.04z" fill-rule="evenodd" transform="matrix(-.3 0 0 -.3 .69 0)" stroke="#fff" stroke-width=".625" fill="#fff"/>
  </marker>
 </defs>
 <g transform="translate(-39.6 -24.4)">
  <path stroke="#80a" stroke-width="10" marker-end="url(#marker11224)" d="m618 545c99.7 5.3 90.8 57.3 22.6 64" fill="none"/>
  <path stroke="#00aad4" stroke-width="10" marker-end="url(#marker11098)" d="m123 484c-99.8 5-90.7 115-22 122" fill="none"/>
  <use xlink:href="#rect10950" transform="translate(0,-124)" height="100%" width="100%" y="0" x="0"/>
  <rect id="rect10952" height="49.5" width="297" y="521" x="320" fill="#80a"/>
  <text style="word-spacing:0px;letter-spacing:0px" xml:space="preserve" font-size="40px" y="215.21935" x="182.85715" font-family="Sans" line-height="125%" fill="#000000"><tspan y="215.21935" x="182.85715"/></text>
  <g id="g4206" transform="translate(27.3 -94.9)">
   <rect id="rect3336" height="48.4" width="48.4" stroke="#fff" stroke-linecap="square" y="121" x="96.7" stroke-width="4" fill="none"/>
   <text style="word-spacing:0px;letter-spacing:0px" xml:space="preserve" font-size="40px" y="162.87297" x="110.80082" font-family="&apos;Modern Sans&apos;" line-height="125%" fill="#ffcc00"><tspan y="162.87297" x="110.80082" font-size="45px" font-family="&apos;Modern Sans&apos;" line-height="125%">1</tspan></text>
  </g>
  <g id="g4211" transform="translate(-21.9 -127)">
   <use xlink:href="#rect3336" transform="translate(98.6 32.1)" height="100%" width="100%" y="0" x="0" stroke-width="4"/>
   <text style="word-spacing:0px;letter-spacing:0px" xml:space="preserve" font-size="40px" y="194.36903" x="206.32332" font-family="&apos;Modern Sans&apos;" line-height="125%" fill="#ffcc00"><tspan y="194.36903" x="206.32332" font-size="45px" font-family="&apos;Modern Sans&apos;" line-height="125%">0</tspan></text>
  </g>
  <use id="use4216" xlink:href="#g4206" transform="translate(98.9 -1e-7)" height="100%" width="100%" y="0" x="0"/>
  <use id="use4218" xlink:href="#g4206" transform="translate(148 -1e-7)" height="100%" width="100%" y="0" x="0"/>
  <use id="use4220" xlink:href="#g4211" transform="translate(148 -1e-7)" height="100%" width="100%" y="0" x="0"/>
  <use id="use4222" xlink:href="#g4206" transform="translate(247 -1e-7)" height="100%" width="100%" y="0" x="0"/>
  <use id="use4224" xlink:href="#g4211" transform="translate(247 -1e-7)" height="100%" width="100%" y="0" x="0"/>
  <use id="use4226" xlink:href="#g4211" transform="translate(297 -1e-7)" height="100%" width="100%" y="0" x="0"/>
  <use id="use4228" xlink:href="#g4211" transform="translate(346 -1e-7)" height="100%" width="100%" y="0" x="0"/>
  <use id="use4230" xlink:href="#g4206" transform="translate(445 -1e-7)" height="100%" width="100%" y="0" x="0"/>
  <g transform="translate(-6,-94)">
   <use xlink:href="#g4206" transform="matrix(.488 0 0 .488 -13.5 270)" height="100%" width="100%" y="0" x="0"/>
   <use xlink:href="#g4211" transform="matrix(.488 0 0 .488 -13.5 270)" height="100%" width="100%" y="0" x="0"/>
   <use xlink:href="#use4216" transform="matrix(.488 0 0 .488 -13.5 270)" height="100%" width="100%" y="0" x="0"/>
   <use xlink:href="#use4218" transform="matrix(.488 0 0 .488 -13.5 270)" height="100%" width="100%" y="0" x="0"/>
   <use xlink:href="#use4220" transform="matrix(.488 0 0 .488 -13.5 270)" height="100%" width="100%" y="0" x="0"/>
   <use xlink:href="#use4222" transform="matrix(.488 0 0 .488 -13.5 270)" height="100%" width="100%" y="0" x="0"/>
   <use xlink:href="#use4224" transform="matrix(.488 0 0 .488 -13.5 270)" height="100%" width="100%" y="0" x="0"/>
   <use xlink:href="#use4226" transform="matrix(.488 0 0 .488 -13.5 270)" height="100%" width="100%" y="0" x="0"/>
   <use xlink:href="#use4228" transform="matrix(.488 0 0 .488 -13.5 270)" height="100%" width="100%" y="0" x="0"/>
   <use xlink:href="#use4230" transform="matrix(.488 0 0 .488 -13.5 270)" height="100%" width="100%" y="0" x="0"/>
  </g>
  <g transform="translate(-5.49 -97.4)">
   <use xlink:href="#g4206" transform="matrix(.488 0 0 .488 155 303)" height="100%" width="100%" y="0" x="0"/>
   <use xlink:href="#g4211" transform="matrix(.488 0 0 .488 106 303)" height="100%" width="100%" y="0" x="0"/>
   <use xlink:href="#use4216" transform="matrix(.488 0 0 .488 -14.5 303)" height="100%" width="100%" y="0" x="0"/>
   <use xlink:href="#use4218" transform="matrix(.488 0 0 .488 106 303)" height="100%" width="100%" y="0" x="0"/>
   <use id="use8690" xlink:href="#use4222" transform="matrix(.488 0 0 .488 82.2 303)" height="100%" width="100%" y="0" x="0"/>
   <use xlink:href="#use4224" transform="matrix(.488 0 0 .488 -159 303)" height="100%" width="100%" y="0" x="0"/>
   <use xlink:href="#use4226" transform="matrix(.488 0 0 .488 -159 303)" height="100%" width="100%" y="0" x="0"/>
   <use id="use8698" xlink:href="#use4230" transform="matrix(.488 0 0 .488 -159 303)" height="100%" width="100%" y="0" x="0"/>
   <use xlink:href="#use8698" transform="translate(24.2 -2e-7)" height="100%" width="100%" y="0" x="0"/>
   <use xlink:href="#use8690" transform="translate(-96.6 -2e-7)" height="100%" width="100%" y="0" x="0"/>
  </g>
  <g id="g8754" transform="translate(-6.55 -105)">
   <use xlink:href="#g4206" transform="matrix(.488 0 0 .488 10.8 341)" height="100%" width="100%" y="0" x="0"/>
   <use xlink:href="#g4211" transform="matrix(.488 0 0 .488 10.8 341)" height="100%" width="100%" y="0" x="0"/>
   <use id="use8738" xlink:href="#use4220" transform="matrix(.488 0 0 .488 10.8 341)" height="100%" width="100%" y="0" x="0"/>
   <use xlink:href="#use4222" transform="matrix(.488 0 0 .488 10.8 341)" height="100%" width="100%" y="0" x="0"/>
   <use xlink:href="#use4224" transform="matrix(.488 0 0 .488 10.8 341)" height="100%" width="100%" y="0" x="0"/>
   <use xlink:href="#use4226" transform="matrix(.488 0 0 .488 10.8 341)" height="100%" width="100%" y="0" x="0"/>
   <use xlink:href="#use4228" transform="matrix(.488 0 0 .488 10.8 341)" height="100%" width="100%" y="0" x="0"/>
   <use xlink:href="#use4230" transform="matrix(.488 0 0 .488 -158 341)" height="100%" width="100%" y="0" x="0"/>
   <use xlink:href="#use8738" transform="translate(-121 1.43e-7)" height="100%" width="100%" y="0" x="0"/>
   <use xlink:href="#use8738" transform="translate(-24.1 1.43e-7)" height="100%" width="100%" y="0" x="0"/>
  </g>
  <g font-size="18.9px" font-family="Sans" fill="#f60">
   <text y="206.27115" x="311.741" style="word-spacing:0px;letter-spacing:0px" xml:space="preserve" line-height="125%"><tspan y="206.27115" x="311.741">f = 5</tspan></text>
   <text y="237.1232" x="311.741" style="word-spacing:0px;letter-spacing:0px" xml:space="preserve" line-height="125%"><tspan y="237.1232" x="311.741">f = 7</tspan></text>
   <text y="267.70752" x="311.741" style="word-spacing:0px;letter-spacing:0px" xml:space="preserve" line-height="125%"><tspan y="267.70752" x="311.741">f = 3</tspan></text>
  </g>
  <ellipse stroke-linecap="square" rx="31.8" stroke="#fff" ry="16.8" cy="262" cx="335" stroke-width="2" fill="none"/>
  <path stroke="#fff" stroke-width="6.98" marker-end="url(#Arrow2Send)" d="m385 230h40.8" fill="none"/>
  <use id="use10566" xlink:href="#g8754" transform="translate(417 -30)" height="100%" width="100%" y="0" x="0"/>
  <rect id="rect10873" height="45.6" width="46" y="320" x="323" fill="#800000"/>
  <use id="use10858" xlink:href="#use10566" transform="matrix(2.05 0 0 2.05 -814 -129)" height="100%" width="100%" y="0" x="0"/>
  <use xlink:href="#use10858" transform="translate(0,60)" height="100%" width="100%" y="0" x="0"/>
  <text style="word-spacing:0px;letter-spacing:0px" xml:space="preserve" font-size="40px" y="359.73639" x="332.90359" font-family="&apos;Modern Sans&apos;" line-height="125%" fill="#ffcc00"><tspan font-size="45px" y="359.73639" x="332.90359" font-family="&apos;Modern Sans&apos;" line-height="125%" fill="#ffcc00">0</tspan></text>
  <use xlink:href="#rect10873" transform="translate(0,60)" height="100%" width="100%" y="0" x="0"/>
  <text style="word-spacing:0px;letter-spacing:0px" xml:space="preserve" font-size="40px" y="419.53967" x="335.54251" font-family="&apos;Modern Sans&apos;" line-height="125%" fill="#ffcc00"><tspan y="419.53967" x="335.54251" font-size="45px" font-family="&apos;Modern Sans&apos;" line-height="125%">1</tspan></text>
  <g transform="translate(-6.55 -105)">
   <use xlink:href="#g4206" transform="matrix(.488 0 0 .488 10.8 341)" height="100%" width="100%" y="0" x="0"/>
   <use xlink:href="#g4211" transform="matrix(.488 0 0 .488 10.8 341)" height="100%" width="100%" y="0" x="0"/>
   <use xlink:href="#use4220" transform="matrix(.488 0 0 .488 10.8 341)" height="100%" width="100%" y="0" x="0"/>
   <use xlink:href="#use4222" transform="matrix(.488 0 0 .488 10.8 341)" height="100%" width="100%" y="0" x="0"/>
   <use xlink:href="#use4224" transform="matrix(.488 0 0 .488 10.8 341)" height="100%" width="100%" y="0" x="0"/>
   <use xlink:href="#use4226" transform="matrix(.488 0 0 .488 10.8 341)" height="100%" width="100%" y="0" x="0"/>
   <use xlink:href="#use4228" transform="matrix(.488 0 0 .488 10.8 341)" height="100%" width="100%" y="0" x="0"/>
   <use xlink:href="#use4230" transform="matrix(.488 0 0 .488 -158 341)" height="100%" width="100%" y="0" x="0"/>
   <use xlink:href="#use8738" transform="translate(-121 1.43e-7)" height="100%" width="100%" y="0" x="0"/>
   <use xlink:href="#use8738" transform="translate(-24.1 1.43e-7)" height="100%" width="100%" y="0" x="0"/>
  </g>
  <use xlink:href="#use10858" transform="translate(0,142)" height="100%" width="100%" y="0" x="0"/>
  <use id="use10920" xlink:href="#g4206" transform="translate(396 495)" height="100%" width="100%" y="0" x="0"/>
  <use id="use10922" xlink:href="#g4211" transform="translate(49.5 495)" height="100%" width="100%" y="0" x="0"/>
  <use id="use10924" xlink:href="#use4220" transform="translate(-198 495)" height="100%" width="100%" y="0" x="0"/>
  <use id="use10926" xlink:href="#use4222" transform="translate(-99.1 495)" height="100%" width="100%" y="0" x="0"/>
  <use id="use10928" xlink:href="#use4224" transform="translate(-99.1 495)" height="100%" width="100%" y="0" x="0"/>
  <use id="use10930" xlink:href="#use4226" transform="translate(-99.1 495)" height="100%" width="100%" y="0" x="0"/>
  <use id="use10932" xlink:href="#use4228" transform="translate(-99.1 495)" height="100%" width="100%" y="0" x="0"/>
  <use id="use10934" xlink:href="#use4230" transform="translate(-.0565 495)" height="100%" width="100%" y="0" x="0"/>
  <use id="use10936" xlink:href="#use8738" transform="matrix(2.05 0 0 2.05 126 -204)" height="100%" width="100%" y="0" x="0"/>
  <use xlink:href="#use8738" transform="matrix(2.05 0 0 2.05 -171 -204)" height="100%" width="100%" y="0" x="0"/>
  <rect id="rect10950" height="49.5" width="196" y="584" x="125" fill="#00aad4"/>
  <use xlink:href="#rect10952" transform="translate(0,62)" height="100%" width="100%" y="0" x="0"/>
  <use xlink:href="#use10920" transform="translate(-6.1e-5,62)" height="100%" width="100%" y="0" x="0"/>
  <use xlink:href="#use10922" transform="translate(-1.53e-5,62)" height="100%" width="100%" y="0" x="0"/>
  <use xlink:href="#use10924" transform="translate(0,62)" height="100%" width="100%" y="0" x="0"/>
  <use id="use10962" xlink:href="#use10926" transform="translate(-3.05e-5,62)" height="100%" width="100%" y="0" x="0"/>
  <use xlink:href="#use10928" transform="translate(-6.1e-5,62)" height="100%" width="100%" y="0" x="0"/>
  <use xlink:href="#use10930" transform="translate(-3.05e-5,62)" height="100%" width="100%" y="0" x="0"/>
  <use xlink:href="#use10932" transform="translate(-3.05e-5,62)" height="100%" width="100%" y="0" x="0"/>
  <use xlink:href="#use10934" transform="translate(0,62)" height="100%" width="100%" y="0" x="0"/>
  <use xlink:href="#use10936" transform="translate(0,62)" height="100%" width="100%" y="0" x="0"/>
  <use xlink:href="#use10962" transform="translate(-99)" height="100%" width="100%" y="0" x="0"/>
 </g>
 <g transform="matrix(.866 0 0 .866 -650 -244)" fill="#f60">
  <g fill-rule="evenodd" xml:space="preserve" transform="matrix(1.06 0 0 -1.06 -186 789)" stroke="#000" stroke-miterlimit="10.4" stroke-width="0" fill="#f60"><path d="m886 364v-13.4c0-2.23-0.54-2.23-3.89-2.23v-1.55c1.75 0.05 4.29 0.16 5.63 0.16 1.3 0 3.89-0.11 5.58-0.16v1.55c-3.33 0-3.88 0-3.88 2.23v9.17c0 5.19 3.53 7.97 6.72 7.97 3.14 0 3.69-2.68 3.69-5.53v-11.6c0-2.23-0.55-2.23-3.89-2.23v-1.55c1.75 0.05 4.29 0.16 5.64 0.16 1.3 0 3.87-0.11 5.58-0.16v1.55c-3.35 0-3.89 0-3.89 2.23v9.17c0 5.19 3.54 7.97 6.73 7.97 3.14 0 3.69-2.68 3.69-5.53v-11.6c0-2.23-0.55-2.23-3.89-2.23v-1.55c1.73 0.05 4.28 0.16 5.62 0.16 1.3 0 3.89-0.11 5.58-0.16v1.55c-2.58 0-3.83 0-3.87 1.5v9.51c0 4.29 0 5.83-1.55 7.61-0.7 0.86-2.35 1.85-5.24 1.85-4.18 0-6.37-2.99-7.21-4.88-0.71 4.33-4.4 4.88-6.63 4.88-3.64 0-5.98-2.14-7.37-5.22v5.22l-7.04-0.55v-1.55c3.49 0 3.89-0.34 3.89-2.78z"/><path d="m938 350 0.03-0.18 0.03-0.19 0.03-0.19 0.04-0.18 0.05-0.19 0.06-0.18 0.06-0.18 0.07-0.18 0.07-0.18 0.08-0.17 0.09-0.17 0.1-0.17 0.1-0.16 0.1-0.16 0.12-0.15 0.12-0.15 0.12-0.14 0.13-0.14 0.14-0.13 0.15-0.12 0.15-0.11 0.15-0.11 0.17-0.1 0.17-0.09 0.17-0.08 0.18-0.07 0.19-0.06 0.19-0.05 0.2-0.04 0.21-0.03 0.21-0.02 0.21-0.01c1.03 0 4.08 0.71 4.08 4.74v2.78h-1.25v-2.78c0-2.89-1.23-3.19-1.8-3.19-1.63 0-1.84 2.24-1.84 2.49v9.96c0 2.1 0 4.04-1.78 5.88-1.95 1.94-4.44 2.73-6.83 2.73-4.09 0-7.53-2.32-7.53-5.62 0-1.49 1-2.34 2.3-2.34 1.39 0 2.3 1 2.3 2.29 0 0.6-0.25 2.24-2.55 2.3 1.34 1.73 3.78 2.28 5.37 2.28 2.46 0 5.28-1.94 5.28-6.37v-7.88c0-4.73-3.57-6.42-5.82-6.42-2.44 0-4.49 1.75-4.49 4.23 0 2.74 2.09 6.88 10.3 7.17v1.05c-2.53-0.14-6.01-0.3-9.15-1.8-3.74-1.68-4.99-4.28-4.99-6.46 0-4.04 4.83-5.29 7.97-5.29 3.3 0 5.58 1.99 6.53 4.33z"/><path d="m961 358 0.29 0.37 0.29 0.37 0.3 0.38 0.31 0.38 0.61 0.78 0.31 0.38 0.3 0.39 0.3 0.37 0.3 0.37 0.29 0.35 0.28 0.34 0.13 0.17 0.14 0.15 0.13 0.16 0.13 0.15 0.12 0.14 0.12 0.14 0.12 0.13 0.11 0.13c1.55 1.78 3.6 2.53 5.94 2.57v1.55c-1.3-0.09-2.8-0.14-4.09-0.14-1.49 0-4.13 0.09-4.79 0.14v-1.55c1.05-0.09 1.46-0.73 1.46-1.53 0-0.79-0.5-1.45-0.75-1.75l-3.1-3.89-3.87 5.03c-0.45 0.5-0.45 0.61-0.45 0.91 0 0.75 0.75 1.19 1.73 1.23v1.55c-1.28-0.05-4.58-0.14-5.37-0.14-1.05 0-3.4 0.05-4.74 0.14v-1.55c3.48 0 3.55-0.04 5.88-3.03l4.93-6.42-4.68-5.94c-2.39-2.89-5.33-2.98-6.38-2.98v-1.55c1.3 0.1 2.84 0.16 4.14 0.16 1.44 0 3.53-0.11 4.74-0.16v1.55c-1.1 0.14-1.46 0.8-1.46 1.55 0 1.09 1.46 2.73 4.49 6.32l3.79-4.98c0.39-0.55 1.05-1.34 1.05-1.64 0-0.45-0.45-1.2-1.8-1.25v-1.55c1.49 0.05 4.28 0.16 5.38 0.16 1.34 0 3.3-0.06 4.78-0.16v1.55c-2.69 0-3.58 0.09-4.73 1.55z"/><path d="m1.01e3 366h4.3c1 0 1.5 0 1.5 1 0 0.55-0.5 0.55-1.4 0.55h-4.1l1.1 5.69c0.2 1.04 0.9 4.58 1.2 5.17 0.4 0.95 1.3 1.7 2.3 1.7 0.2 0 1.5 0 2.4-0.9-2.2-0.19-2.7-1.94-2.7-2.69 0-1.14 1-1.74 1.9-1.74 1.3 0 2.7 1.1 2.7 2.99 0 2.3-2.3 3.44-4.3 3.44-1.7 0-4.8-0.89-6.3-5.83-0.3-1.05-0.5-1.55-1.7-7.83h-3.4c-0.9 0-1.5 0-1.5-0.94 0-0.61 0.4-0.61 1.4-0.61h3.3l-3.8-19.7c-0.85-4.83-1.7-9.37-4.29-9.37-0.21 0-1.44 0-2.39 0.9 2.29 0.14 2.73 1.94 2.73 2.69 0 1.14-0.89 1.75-1.84 1.75-1.3 0-2.74-1.09-2.74-3 0-2.23 2.19-3.44 4.24-3.44 2.73 0 4.69 2.94 5.59 4.85 1.6 3.14 2.8 9.15 2.8 9.51z"/><path d="m1.06e3 358 0.2 0.01h0.3v0.01h0.1l0.1 0.01 0.1 0.01 0.1 0.01v0.01l0.1 0.01 0.1 0.02v0.02l0.1 0.02v0.02l0.1 0.03 0.1 0.03v0.04l0.1 0.04v0.09l0.1 0.05v0.08l0.1 0.03v0.46c0 1-0.9 1-1.7 1h-21.1c0.6 6.68 6.3 11.5 13.3 11.5h7.8c0.8 0 1.7 0 1.7 1s-0.9 1-1.7 1h-7.9c-8.5 0-15.3-6.49-15.3-14.5 0-7.96 6.8-14.4 15.3-14.4h7.9c0.8 0 1.7 0 1.7 1s-0.9 1-1.7 1h-7.8c-7 0-12.7 4.78-13.3 11.4z"/><path d="m1.1e3 334v0.25l-0.1 0.03v0.1l-0.1 0.03v0.08l-0.1 0.02v0.1l-0.1 0.03v0.08l-0.1 0.03v0.06l-0.1 0.03v0.07l-0.1 0.03v0.08l-0.1 0.03v0.04c-6.2 6.28-7.8 15.7-7.8 23.3 0 8.68 1.9 17.4 8 23.6 0.6 0.61 0.6 0.7 0.6 0.86 0 0.34-0.1 0.48-0.5 0.48-0.5 0-4.9-3.37-7.9-9.7-2.5-5.49-3.1-11-3.1-15.2 0-3.89 0.5-9.9 3.3-15.5 3-6.13 7.2-9.36 7.7-9.36 0.4 0 0.5 0.14 0.5 0.5z"/><path d="m1.12e3 362v2.24l-0.1 0.74v0.75l-0.1 0.74-0.1 0.74-0.1 0.73-0.1 0.74-0.1 0.72-0.2 0.73-0.2 0.71-0.2 0.72-0.2 0.7-0.3 0.7-0.2 0.35-0.1 0.35c-2.3 4.79-6.4 5.59-8.5 5.59-3 0-6.6-1.3-8.7-5.94-1.5-3.44-1.8-7.33-1.8-11.3 0-3.74 0.2-8.22 2.3-12 2.1-4.03 5.7-5.03 8.2-5.03v1.09c-2 0-4.9 1.25-5.8 6.03-0.5 2.99-0.5 7.57-0.5 10.5 0 3.19 0 6.47 0.4 9.15 0.9 5.94 4.6 6.38 5.9 6.38 1.6 0 4.9-0.89 5.8-5.83 0.5-2.78 0.5-6.58 0.5-9.7 0-3.75 0-7.13-0.5-10.3-0.7-4.74-3.6-6.24-5.8-6.24v-1.09c2.7 0 6.4 1.04 8.7 5.78 1.5 3.44 1.8 7.31 1.8 11.2z"/><path d="m1.13e3 346v1.17l-0.1 0.27v0.52l-0.1 0.25-0.1 0.23v0.23l-0.1 0.22-0.1 0.21v0.2l-0.1 0.2-0.1 0.18-0.1 0.17-0.1 0.17-0.1 0.15-0.2 0.14-0.1 0.14-0.1 0.12-0.1 0.11-0.2 0.11-0.1 0.09-0.2 0.08-0.1 0.07-0.2 0.06-0.2 0.05-0.1 0.04-0.2 0.03-0.2 0.02h-0.1c-1.7 0-2.7-1.25-2.7-2.64 0-1.34 1-2.64 2.7-2.64 0.5 0 1.2 0.2 1.7 0.64 0.1 0.11 0.2 0.16 0.3 0.16v-0.75c0-3.69-1.7-6.67-3.4-8.31-0.5-0.55-0.5-0.66-0.5-0.8 0-0.36 0.2-0.55 0.5-0.55 0.6 0 4.5 3.83 4.5 9.66z"/><path d="m1.16e3 378v0.98l-0.1 0.04v0.11l-0.1 0.03v0.04l-0.1 0.02v0.02h-0.1v0.02l-0.1 0.01v0.01h-0.1v0.01h-0.2v0.01h-0.3c-3.1-3.19-7.5-3.19-9.1-3.19v-1.55c1 0 4 0 6.6 1.3v-25.8c0-1.8-0.2-2.39-4.7-2.39h-1.6v-1.55c1.8 0.16 6.1 0.16 8.1 0.16s6.3 0 8.1-0.16v1.55h-1.6c-4.5 0-4.7 0.55-4.7 2.39z"/><path d="m1.19e3 359-0.1 0.38v2.02l-0.1 0.88-0.1 0.92-0.1 0.95-0.1 0.98-0.2 1-0.2 1.02-0.2 1.04-0.3 1.05-0.3 1.06-0.3 1.06-0.4 1.07-0.2 0.53-0.2 0.53-0.3 0.53-0.2 0.53c-3 6.13-7.3 9.36-7.8 9.36-0.3 0-0.5-0.19-0.5-0.48 0-0.16 0-0.25 0.9-1.16 4.9-4.92 7.8-12.8 7.8-23.3 0-8.51-1.9-17.3-8.1-23.6-0.6-0.59-0.6-0.7-0.6-0.84 0-0.3 0.2-0.5 0.5-0.5 0.5 0 5 3.39 7.9 9.72 2.6 5.47 3.2 11 3.2 15.2z"/><path d="m1.25e3 374v0.03l0.1 0.03v0.21l0.1 0.04v0.16l0.1 0.03v0.29l0.1 0.04v0.17c0 0.55-0.5 1-1 1s-0.8-0.36-1.2-1.1l-11.7-26.4-11.7 26.4c-0.4 0.94-0.8 1.05-1.1 1.05-0.6 0-1-0.45-1-1 0-0.1 0-0.2 0.3-0.8l12.4-28c0.4-0.84 0.7-1.04 1.1-1.04 0.7 0 0.8 0.34 1.1 1.04z"/><path d="m1.28e3 364v-13.4c0-2.23-0.6-2.23-3.9-2.23v-1.55c1.8 0.05 4.3 0.16 5.6 0.16s3.9-0.11 5.6-0.16v1.55c-3.3 0-3.9 0-3.9 2.23v9.17c0 5.19 3.6 7.97 6.8 7.97 3.1 0 3.6-2.68 3.6-5.53v-11.6c0-2.23-0.5-2.23-3.9-2.23v-1.55c1.8 0.05 4.4 0.16 5.7 0.16s3.9-0.11 5.6-0.16v1.55c-3.4 0-3.9 0-3.9 2.23v9.17c0 5.19 3.5 7.97 6.7 7.97s3.7-2.68 3.7-5.53v-11.6c0-2.23-0.5-2.23-3.9-2.23v-1.55c1.7 0.05 4.3 0.16 5.6 0.16s3.9-0.11 5.6-0.16v1.55c-2.6 0-3.8 0-3.9 1.5v9.51c0 4.29 0 5.83-1.5 7.61-0.7 0.86-2.3 1.85-5.2 1.85-4.2 0-6.4-2.99-7.3-4.88-0.7 4.33-4.4 4.88-6.6 4.88-3.6 0-6-2.14-7.4-5.22v5.22l-7-0.55v-1.55c3.5 0 3.9-0.34 3.9-2.78z"/><path d="m1.32e3 368-6.9-0.55v-1.55c3.2 0 3.7-0.29 3.7-2.73v-13.4c0-2.23-0.6-2.23-3.9-2.23v-1.55c1.6 0.05 4.2 0.16 5.5 0.16 1.7 0 3.4-0.11 5.1-0.16v1.55c-3.2 0-3.5 0.25-3.5 2.19z"/><path d="m1.32e3 377-0.1 0.15v0.55l-0.1 0.13v0.13l-0.1 0.12v0.12l-0.1 0.12v0.11l-0.1 0.11-0.1 0.1-0.1 0.1-0.1 0.09v0.09l-0.1 0.08-0.1 0.08-0.1 0.08-0.1 0.06-0.2 0.07-0.1 0.06-0.1 0.05-0.1 0.05-0.1 0.04-0.1 0.04-0.2 0.04-0.1 0.02-0.1 0.02-0.1 0.02-0.2 0.01h-0.1c-1.5 0-2.6-1.34-2.6-2.64 0-1.34 1.1-2.64 2.6-2.64 1.4 0 2.7 1.05 2.7 2.64z"/><path d="m1.33e3 364v-13.4c0-2.23-0.5-2.23-3.9-2.23v-1.55c1.8 0.05 4.3 0.16 5.7 0.16 1.2 0 3.8-0.11 5.5-0.16v1.55c-3.3 0-3.9 0-3.9 2.23v9.17c0 5.19 3.6 7.97 6.8 7.97 3.1 0 3.7-2.68 3.7-5.53v-11.6c0-2.23-0.6-2.23-3.9-2.23v-1.55c1.7 0.05 4.3 0.16 5.6 0.16s3.9-0.11 5.6-0.16v1.55c-2.6 0-3.9 0-3.9 1.5v9.51c0 4.29 0 5.83-1.5 7.61-0.7 0.86-2.4 1.85-5.3 1.85-3.6 0-6-2.14-7.4-5.22v5.22l-7-0.55v-1.55c3.5 0 3.9-0.34 3.9-2.78z"/><path d="m1.39e3 366h4.3c1 0 1.5 0 1.5 1 0 0.55-0.5 0.55-1.4 0.55h-4.1l1 5.69c0.2 1.04 0.9 4.58 1.2 5.17 0.5 0.95 1.3 1.7 2.4 1.7 0.2 0 1.5 0 2.4-0.9-2.2-0.19-2.7-1.94-2.7-2.69 0-1.14 0.9-1.74 1.9-1.74 1.3 0 2.7 1.1 2.7 2.99 0 2.3-2.3 3.44-4.3 3.44-1.7 0-4.9-0.89-6.4-5.83-0.2-1.05-0.4-1.55-1.6-7.83h-3.4c-1 0-1.5 0-1.5-0.94 0-0.61 0.4-0.61 1.4-0.61h3.3l-3.8-19.7c-0.9-4.83-1.7-9.37-4.3-9.37-0.2 0-1.4 0-2.4 0.9 2.3 0.14 2.7 1.94 2.7 2.69 0 1.14-0.9 1.75-1.8 1.75-1.3 0-2.8-1.09-2.8-3 0-2.23 2.2-3.44 4.3-3.44 2.7 0 4.7 2.94 5.6 4.85 1.6 3.14 2.8 9.15 2.8 9.51z"/><path d="m1.44e3 358 0.1 0.01h0.3l0.1 0.01h0.1l0.1 0.01v0.01l0.1 0.01 0.1 0.01 0.1 0.01v0.02l0.1 0.02 0.1 0.02v0.02l0.1 0.03v0.03l0.1 0.04v0.04l0.1 0.04v0.05l0.1 0.05v0.18l0.1 0.03v0.36c0 1-0.9 1-1.7 1h-21.2c0.6 6.68 6.4 11.5 13.4 11.5h7.8c0.8 0 1.7 0 1.7 1s-0.9 1-1.7 1h-7.9c-8.5 0-15.3-6.49-15.3-14.5 0-7.96 6.8-14.4 15.3-14.4h7.9c0.8 0 1.7 0 1.7 1s-0.9 1-1.7 1h-7.8c-7 0-12.8 4.78-13.4 11.4z"/><path d="m1.48e3 334v0.16l-0.1 0.02v0.13l-0.1 0.03v0.11l-0.1 0.02v0.09l-0.1 0.02v0.08l-0.1 0.03v0.09l-0.1 0.03v0.06l-0.1 0.04v0.07l-0.1 0.04v0.03l-0.1 0.04c-6.2 6.28-7.8 15.7-7.8 23.3 0 8.68 1.9 17.4 8.1 23.6 0.6 0.61 0.6 0.7 0.6 0.86 0 0.34-0.2 0.48-0.5 0.48-0.5 0-5-3.37-7.9-9.7-2.6-5.49-3.2-11-3.2-15.2 0-3.89 0.6-9.9 3.3-15.5 3-6.13 7.3-9.36 7.8-9.36 0.3 0 0.5 0.14 0.5 0.5z"/><path d="m1.51e3 362v2.98l-0.1 0.75v0.74l-0.1 0.74-0.1 0.73-0.1 0.74-0.1 0.72-0.2 0.73-0.2 0.71-0.2 0.72-0.3 0.7-0.2 0.7-0.2 0.35-0.2 0.35c-2.2 4.79-6.3 5.59-8.4 5.59-3 0-6.7-1.3-8.7-5.94-1.6-3.44-1.8-7.33-1.8-11.3 0-3.74 0.2-8.22 2.2-12 2.1-4.03 5.8-5.03 8.2-5.03v1.09c-1.9 0-4.9 1.25-5.7 6.03-0.6 2.99-0.6 7.57-0.6 10.5 0 3.19 0 6.47 0.4 9.15 0.9 5.94 4.7 6.38 5.9 6.38 1.7 0 5-0.89 5.9-5.83 0.5-2.78 0.5-6.58 0.5-9.7 0-3.75 0-7.13-0.5-10.3-0.8-4.74-3.6-6.24-5.9-6.24v-1.09c2.7 0 6.5 1.04 8.7 5.78 1.6 3.44 1.8 7.31 1.8 11.2z"/><path d="m1.52e3 346v0.89l-0.1 0.28v0.54l-0.1 0.25v0.25l-0.1 0.23-0.1 0.23v0.22l-0.1 0.21-0.1 0.2-0.1 0.2-0.1 0.18-0.1 0.17-0.1 0.17-0.1 0.15-0.1 0.14-0.1 0.14-0.2 0.12-0.1 0.11-0.1 0.11-0.2 0.09-0.1 0.08-0.2 0.07-0.1 0.06-0.2 0.05-0.2 0.04-0.1 0.03-0.2 0.02h-0.2c-1.6 0-2.6-1.25-2.6-2.64 0-1.34 1-2.64 2.6-2.64 0.6 0 1.3 0.2 1.8 0.64 0.1 0.11 0.2 0.16 0.2 0.16s0.1-0.05 0.1-0.75c0-3.69-1.7-6.67-3.4-8.31-0.5-0.55-0.5-0.66-0.5-0.8 0-0.36 0.2-0.55 0.5-0.55 0.5 0 4.5 3.83 4.5 9.66z"/><path d="m1.56e3 360-0.3 0.31-0.2 0.3-0.2 0.28-0.2 0.26-0.3 0.26-0.1 0.24-0.2 0.23-0.2 0.22-0.2 0.2-0.1 0.2-0.2 0.19-0.1 0.18-0.2 0.17-0.1 0.16-0.2 0.15-0.1 0.15-0.1 0.14-0.1 0.13-0.1 0.13-0.2 0.13-0.2 0.24-0.2 0.22-0.3 0.22-0.2 0.22-0.3 0.22-0.1 0.11-0.2 0.12c-2.8 2.25-5.6 3.14-8.1 3.14-5.8 0-9.6-5.47-9.6-11.3h1.1c0 4.88 3.3 8.91 7.7 8.91 2.9 0 5.1-2.1 6.2-3.14 1.2-1.35 2.4-2.89 5.4-6.82-2-3.59-5.7-8.62-11.3-8.62-5.3 0-8 5.19-8 9.67h-1.1c0-5.73 3.7-11.3 9.4-11.3s9.9 4.54 12.3 8.52c2.7-3.39 3.3-4.12 4.9-5.37 2.7-2.25 5.5-3.15 8.1-3.15 5.8 0 9.6 5.49 9.6 11.3h-1.1c0-4.89-3.3-8.92-7.7-8.92-2.9 0-5.2 2.09-6.2 3.14-1.2 1.34-2.4 2.89-5.4 6.82 2 3.58 5.7 8.61 11.3 8.61 5.3 0 8-5.17 8-9.65h1.1c0 5.72-3.7 11.2-9.4 11.2-5.8 0-9.9-4.53-12.3-8.52z"/><path d="m1.59e3 359-0.1 0.38v2.02l-0.1 0.88-0.1 0.92-0.1 0.95-0.1 0.98-0.2 1-0.2 1.02-0.2 1.04-0.3 1.05-0.3 1.06-0.3 1.06-0.4 1.07-0.2 0.53-0.3 0.53-0.2 0.53-0.2 0.53c-3 6.13-7.3 9.36-7.8 9.36-0.3 0-0.5-0.19-0.5-0.48 0-0.16 0-0.25 0.9-1.16 4.9-4.92 7.8-12.8 7.8-23.3 0-8.51-1.9-17.3-8.1-23.6-0.6-0.59-0.6-0.7-0.6-0.84 0-0.3 0.2-0.5 0.5-0.5 0.5 0 5 3.39 7.9 9.72 2.6 5.47 3.2 11 3.2 15.2z"/></g>
 </g>
</svg>
