<?xml version="1.0" encoding="UTF-8" standalone="no"?>
<svg xmlns:rdf="http://www.w3.org/1999/02/22-rdf-syntax-ns#" xmlns="http://www.w3.org/2000/svg" height="50.8mm" width="50.8mm" version="1.2" stroke-width=".3" xmlns:cc="http://creativecommons.org/ns#" xmlns:dc="http://purl.org/dc/elements/1.1/" viewBox="0 0 50.8 50.8">
 <g stroke="#000" stroke-dasharray="0.5,0.5" fill="none">
  <path d="m10.2 10.2h30.4v30.4h-30.4z" stroke="#fff"/>
 </g>
 <g stroke="#fc0" fill="#fc0">
  <path fill="#fc0" d="m9.67 40.2c-2.81-2.5-5.18-4.6-7.04-7.3 0-0.12 0.17-0.54 0.37-0.94 1.15-2.28 2.17-3.75 4.73-6.83l1.37-1.64-0.07-0.7c-0.38-4.5-0.16-7.8 0.94-12 0.13-1.27 0.43-0.6 2.03 0.6 1.9 1.5 3.6 2.3 5.3 5.1l2.17 0.09c2.46 0.11 3.46 0.27 4.87 0.72l1.06 0.34 0.03 4.15 0.03 3.57c-1.23 1.23-2.53 2.71-3.76 3.94 1.65 2.68 6.11 4.18 9.99 4.57l1.6 0.14 1.12 1.32c1.26 1.48 2.04 2.15 4.23 3.65l1.52 1.04c0.16 0.09 0.97 0.57-0.18 0.46l-2.26-0.43c-3.09-0.59-4.51-0.78-5.89-0.78-1.1 0-3.28 0.14-4.34 0.29-0.45 0.06-0.52 0.03-1.64-0.91-3.5-2.93-4.67-3.77-6.86-4.93l-1.23-0.66-7.32 7.32c-0.26 0.37-0.82-0.35-0.82-0.35zm7.73-7.2c-1.3-0.7-2.5-1.4-4-2.3l-0.79 0.76c-0.41 0.4-1.24 0.97-1.7 1.43-0.74 0.73-0.93 1.02-1.58 2.38-0.68 1.41-1.04 1.88-1.03 1.34 0-0.35 1.35-2.99 1.85-3.62 0.3-0.3 1-1 1.7-1.5l1.26-0.97c-0.49-0.45-0.94-0.85-1.33-1.29-0.15-0.06-2 1.44-2.65 2.15-0.34 0.37-1.01 1.32-1.51 2.12-0.83 1.34-1.21 1.74-1.21 1.27 0-0.24 1.41-2.49 2.13-3.41 0.31-0.39 0.99-1.05 1.52-1.47 0.53-0.41 1.34-0.98 1.48-1.09-1.3-1.9-1.64-3.2-2.36-4.8l-1.64 2c-2.16 2.63-2.79 3.52-3.79 5.35l-0.83 1.52c0.7 0.58 4.85 5.64 7.26 7.21 2.6-2.5 4.5-4.4 7.2-7.1zm-8.09 5.6c1.19-1.9 3.89-5.7 5.59-6.7-1.08 1.8-3.52 3.88-4.84 6.19-0.21 0.37-0.42 0.61-0.55 0.61-0.11 0-0.21-0.05-0.21-0.12zm-4.46-5.3c0-0.24 1.31-2.7 1.75-3.28 0.74-0.92 3.91-4.13 4.01-3.17-1.95 1.23-4.25 3.78-5.05 5.85-0.2 0.4-0.45 0.73-0.54 0.73-0.1 0-0.17-0.06-0.17-0.13zm33 5.78c-1.94-1.35-3.1-2.45-4.44-4.17-0.25-0.32-0.31-0.33-2.4-0.55-4.84-0.43-9.35-2.98-10.6-6.68-2.28-5.68-0.94-9.92-6.21-14.2-0.45-0.37-1.49-1.13-2.3-1.69l-1.5-1c-1.37 4.8-1.56 9.7-0.69 13 0.58 2.22 1.63 4.4 3.24 5.81 2.36 2.07 8.78 4.31 14.2 9.65l0.64-0.06c4.11-0.38 5.35-0.34 8.91 0.34 1.13 0.21 2.13 0.4 2.22 0.4 0.09 0.01-0.42-0.39-1.14-0.89zm-6.77-2.06c-7.4-3-9.4-3.9-11.4-6-2.8-3.2-4.3-6.7-5.8-10.5-0.78-2.92 0.56 0.34 0.97 1.38 0.96 2.41 2.05 4.09 2.89 5.63 2.35 4.33 5.52 5.98 14.7 9.58 1.52 0.6 2.43 1.03 2.43 1.13 0 0.09-0.09 0.16-0.21 0.16-0.11 0-1.68-0.6-3.49-1.33zm-20.3-16.8c-0.1-0.6-0.3-4.7 0.5-4.8 0.18-0.03 0.37 0.24 0.55 0.63 0.35 0.75 0.66 1.92 0.74 2.18l0.25 1.01c-0.9 0.5-1.6 1.4-1.8 1.3-0.2 0-0.3-0.1-0.3-0.3zm0.3-0.2c0.4-0.4 1.2-0.8 1.4-1-0.6-2.4-1-3.3-1.2-3.2-0.3 1.2-0.3 2.6-0.2 4.2zm1.8-5.3c0.33-0.29 3.16 2.32 3.16 2.63 0 0.06-0.51 0.36-1.08 0.63-0.41 0.19-1 0.47-1.1 0.47-0.28-0.27-1.11-3.56-0.98-3.73zm0.39 0.5c-0.22-0.15 0.41 2.12 0.67 2.84 0.94-0.27 1.68-0.82 1.67-0.86-0.6-0.5-2-1.7-2.4-1.9zm7.37 10.4c-0.29 0-0.08-0.36 0.57-0.98 0.27-0.25 0.5-0.46 0.73-0.61 0.59-0.4 1.13-0.53 2.08-0.55l1.06-0.02c-0.01-0.49 0.04-1.15-0.09-1.54-0.05 0.03-0.65-0.17-1.07-0.25-1.23-0.26-1.58-0.14-2.54 0.32-0.92 0.44-1.11 0.57-1.11 0.33 0-0.08 0.43-0.36 0.95-0.62 0.86-0.42 1.03-0.46 1.79-0.44 0.46 0.01 1.11 0.13 1.45 0.19l0.68 0.12c0.01-0.14 0.02-0.4 0.04-0.67 0.02-0.42 0.03-0.87 0-1-0.99-0.46-2.15-0.84-3.07-0.85-0.97-0.01-1.86 0-2.58 0.3-0.32 0.13-0.5 0.35-0.75 0.62 0.41 1.7 1.43 7.99 2.76 9.21 1.16-1.16 2.37-2.56 3.53-3.72 0.23-0.8 0.08-1.62-0.06-1.65-2.29-0.53-3.69 0.99-4.39 1.82zm4.44-7.47m-0.63-0.22m-1.18-0.42c-0.5-0.2-1.1-0.3-1.6-0.4-0.7 0-1.5-0.1-2.4-0.1-0.5-0.1-1.6-0.1-1.7-0.1 0.15 0.31 0.32 0.65 0.49 1.01 0.26 0.54 0.51 1.11 0.62 1.62 0.81-0.55 1.58-0.71 2.31-0.77 0.87-0.08 1.89 0.1 2.69 0.3 0.69 0.17 1.21 0.35 1.32 0.38 0.13 0.04 0.15-0.14 0.14-0.42-0.01-0.25-0.05-0.59-0.05-0.89zm1.48 13.4c-0.34-0.09-0.81-0.37-1.21-0.71-0.22-0.19-0.43-0.41-0.57-0.62-0.12-0.18-0.2-0.35-0.21-0.51-0.03-0.38 0.5 0.46 0.88 0.85 0.13 0.13 0.3 0.25 0.48 0.36 0.36 0.21 0.77 0.39 0.98 0.58-0.01 0.09-0.14 0.15-0.36 0.05zm-0.18-2.17c-0.12-0.08-0.23-0.13-0.33-0.27-0.13-0.16-0.23-0.36-0.31-0.55-0.17-0.42-0.28-0.79-0.05-0.79 0.06 0 0.15 0.23 0.24 0.46 0.06 0.16 0.12 0.31 0.16 0.39 0.1 0.19 0.34 0.43 0.53 0.53 0.09 0.46-0.16 0.28-0.24 0.23z" stroke="#fc0"/>
 </g>
</svg>
