<?xml version="1.0" encoding="UTF-8" standalone="no"?>
<svg xmlns:rdf="http://www.w3.org/1999/02/22-rdf-syntax-ns#" xmlns="http://www.w3.org/2000/svg" version="1.1" xmlns:cc="http://creativecommons.org/ns#" xmlns:xlink="http://www.w3.org/1999/xlink" viewBox="0 0 600 400" xmlns:dc="http://purl.org/dc/elements/1.1/">
 <g transform="translate(0 -652)">
  <rect id="e" height="117" width="117" stroke="#fff" y="672" x="26.3" stroke-width="2" fill="none"/>
  <use id="d" xlink:href="#e" transform="translate(143)" height="400" width="600" y="0" x="0"/>
  <use id="c" xlink:href="#d" transform="translate(143)" height="400" width="600" y="0" x="0"/>
  <use id="j" xlink:href="#c" transform="translate(143)" height="400" width="600" y="0" x="0"/>
  <use xlink:href="#e" transform="translate(0,220)" height="400" width="600" y="0" x="0"/>
  <use xlink:href="#d" transform="translate(0,220)" height="400" width="600" y="0" x="0"/>
  <use xlink:href="#c" transform="translate(0,220)" height="400" width="600" y="0" x="0"/>
  <use xlink:href="#j" transform="translate(0,220)" height="400" width="600" y="0" x="0"/>
  <text id="a" style="word-spacing:0px;letter-spacing:0px" font-weight="bold" xml:space="preserve" font-size="123px" y="775.13" x="42.333412" font-family="Sans" line-height="125%" fill="#ffffff"><tspan x="42.333412" y="775.13">F</tspan></text>
  <use xlink:href="#a" transform="matrix(0 -1 1 0 -503 815)" height="400" width="600" y="0" x="0"/>
  <use id="i" xlink:href="#a" transform="matrix(-1 0 0 1 455 -.0000091)" height="400" width="600" y="0" x="0"/>
  <use xlink:href="#i" transform="matrix(0 -1 1 0 -217 1.1e3)" height="400" width="600" y="0" x="0"/>
  <use id="b" xlink:href="#a" transform="matrix(.5 0 0 1 160 220)" height="400" width="600" y="0" x="0"/>
  <use id="h" xlink:href="#b" transform="translate(50)" height="400" width="600" y="0" x="0"/>
  <use id="g" xlink:href="#a" transform="matrix(1 0 0 .5 0 559)" height="400" width="600" y="0" x="0"/>
  <use id="f" xlink:href="#g" transform="translate(0,52)" height="400" width="600" y="0" x="0"/>
  <g transform="translate(.333 8)">
   <use xlink:href="#b" transform="matrix(1 0 0 .5 142 443)" height="400" width="600" y="0" x="0"/>
   <use xlink:href="#h" transform="matrix(1 0 0 .5 142 443)" height="400" width="600" y="0" x="0"/>
  </g>
  <use xlink:href="#f" transform="translate(285)" height="400" width="600" y="0" x="0"/>
  <rect stroke-dasharray="2.8283998, 2.8283998" transform="rotate(-45)" height="82.9" width="82.9" stroke="#fff" y="951" x="-309" stroke-width="1.41" fill="none"/>
  <use xlink:href="#a" transform="matrix(0.5 -0.5 0.5 0.5 105 569)" height="400" width="600" y="0" x="0"/>
  <g font-size="16px" font-family="Sans" fill="#ff6600">
   <text style="word-spacing:0px;letter-spacing:0px" xml:space="preserve" y="814.87854" x="74.771751" line-height="125%"><tspan x="74.771751" y="814.87854">f</tspan></text>
   <text style="word-spacing:0px;letter-spacing:0px" line-height="125%" y="812.76917" x="189.20538" xml:space="preserve"><tspan y="812.76917" x="189.20538">rotate(f)</tspan></text>
   <text style="word-spacing:0px;letter-spacing:0px" xml:space="preserve" y="811.55042" x="346.03357" line-height="125%"><tspan x="346.03357" y="811.55042">flip(f)</tspan></text>
   <text style="word-spacing:0px;letter-spacing:0px" line-height="125%" y="811.55042" x="459.61954" xml:space="preserve"><tspan y="811.55042" x="459.61954">rotate(flip(f))</tspan></text>
   <text style="word-spacing:0px;letter-spacing:0px" xml:space="preserve" y="1028.4368" x="484.81244" line-height="125%"><tspan x="484.81244" y="1028.4368">rot45(f)</tspan></text>
   <text style="word-spacing:0px;letter-spacing:0px" line-height="125%" y="1028.4368" x="288.56168" xml:space="preserve"><tspan y="1028.4368" x="288.56168">above(beside(f, f), f)</tspan></text>
   <text style="word-spacing:0px;letter-spacing:0px" xml:space="preserve" y="1028.4368" x="182.14684" line-height="125%"><tspan x="182.14684" y="1028.4368">beside(f, f)</tspan></text>
   <text style="word-spacing:0px;letter-spacing:0px" line-height="125%" y="1028.4368" x="39.396057" xml:space="preserve"><tspan y="1028.4368" x="39.396057">above(f, f)</tspan></text>
  </g>
 </g>
</svg>
