<?xml version="1.0" encoding="UTF-8" standalone="no"?>
<svg xmlns:rdf="http://www.w3.org/1999/02/22-rdf-syntax-ns#" xmlns="http://www.w3.org/2000/svg" xml:space="preserve" overflow="visible" height="374" viewBox="0 0 391.05814 373.8255" width="391" version="1.1" enable-background="new 0 0 400 400" xmlns:cc="http://creativecommons.org/ns#" xmlns:dc="http://purl.org/dc/elements/1.1/"><path fill="#00f" d="m326 131c33.6 19.6 58.1 53.9 63.6 95.4 9.54 71.4-40.6 137-112 146-29.8 3.99-58.7-2.46-82.8-16.5"/><path fill="#0f0" d="m195 356c-14.2 8.17-30.3 13.8-47.6 16.1-71.4 9.54-137-40.6-146-112-7.15-53.5 19.2-104 63-130 0.456-0.27 0.915-0.536 1.38-0.8"/><path fill="#f00" d="m65.5 130c0.137-64.2 47.7-120 113-129 71.3-9.54 137 40.6 146 112 0.797 5.95 1.18 11.9 1.17 17.7"/><path fill="#f0f" d="m195 131c14.6-8.6 31.1-14.5 48.9-16.9 29.8-3.99 58.7 2.46 82.8 16.5v-0.006c-0.102 47.2-25.9 89.9-65.5 113"/><path fill="#ff0" d="m130 243c-33.6-19.6-58.1-53.9-63.6-95.4-0.794-5.95-1.17-11.9-1.16-17.7l-0.001-0.007c14.2-8.17 30.3-13.8 47.6-16.1 29.8-3.99 58.7 2.45 82.8 16.5"/><path fill="#0ff" d="m261 243c-0.0957 47.2-25.9 89.9-65.5 113l0.002 0.004c-33.6-19.6-58.1-53.9-63.7-95.4-0.796-5.96-1.17-11.9-1.16-17.7"/><path fill="#fff" d="m261 243c-14.2 8.17-30.3 13.8-47.6 16.1-29.8 3.98-58.7-2.46-82.8-16.5v0.004c0.101-46.7 25.3-88.9 64.2-112l1.38-0.803c33.6 19.6 58.1 53.9 63.7 95.4 0.793 5.96 1.17 11.9 1.16 17.7l0.008 0.004z"/><g transform="translate(-4 -13.3)"><path d="m188 53.3c2.93-0.539 7.25-0.898 12.2-0.898 5.99 0 10.2 0.898 13.1 3.23 2.46 1.92 3.77 4.73 3.77 8.44 0 5.09-3.65 8.62-7.12 9.88v0.18c2.81 1.14 4.37 3.77 5.39 7.48 1.26 4.61 2.46 9.88 3.23 11.4h-9.34c-0.599-1.14-1.62-4.43-2.75-9.4-1.14-5.09-2.87-6.41-6.65-6.47h-2.69v15.9h-9.04v-39.8zm9.04 17.3h3.59c4.55 0 7.25-2.28 7.25-5.81 0-3.65-2.52-5.57-6.71-5.57-2.22 0-3.47 0.12-4.13 0.299v11.1z"/></g><g transform="translate(-4 -13.3)"><path d="m94.7 316c-2.81 0.958-8.14 2.28-13.5 2.28-7.37 0-12.7-1.86-16.4-5.39-3.65-3.53-5.69-8.8-5.69-14.7 0.0601-13.4 9.82-21.1 23.1-21.1 5.21 0 9.22 1.02 11.2 1.92l-1.92 7.37c-2.22-1.02-4.91-1.74-9.34-1.74-7.6 0-13.4 4.31-13.4 13.1 0 8.38 5.27 13.2 12.8 13.2 2.04 0 3.71-0.239 4.43-0.538v-8.5h-6.23v-7.13h15v21.3z"/></g><g transform="translate(-4 -13.3)"><path d="m313 270c2.39-0.48 7.19-0.898 11.8-0.898 5.57 0 8.98 0.539 11.9 2.28 2.81 1.5 4.79 4.25 4.79 7.96 0 3.53-2.1 6.83-6.59 8.56v0.119c4.61 1.2 8.02 4.73 8.02 9.94 0 3.71-1.68 6.59-4.19 8.56-2.93 2.34-7.84 3.65-15.9 3.65-4.49 0-7.84-0.299-9.88-0.599v-39.6zm9.04 15.4h2.99c4.85 0 7.37-1.98 7.37-4.97 0-3.05-2.34-4.67-6.47-4.67-2.04 0-3.17 0.119-3.89 0.299v9.34zm0 17.9c0.898 0.18 1.98 0.18 3.53 0.18 4.13 0 7.78-1.62 7.78-5.87 0-4.07-3.65-5.69-8.2-5.69h-3.11v11.4z"/></g></svg>
