<?xml version="1.0" encoding="UTF-8" standalone="no"?>
<svg xmlns:rdf="http://www.w3.org/1999/02/22-rdf-syntax-ns#" xmlns="http://www.w3.org/2000/svg" version="1.0" xmlns:cc="http://web.resource.org/cc/" xmlns:dc="http://purl.org/dc/elements/1.1/" viewBox="0 0 120 42">
 <g transform="matrix(.9938 0 0 .9937 -177.7 -74.44)">
  <path fill="#aab2ab" nodetypes="ccccccc" d="m182.2 75.39l114.1 0.2c1.6 0 3-0.23 3 3.18l-0.1 37.53h-119.8v-37.67c0-1.68 0.1-3.24 2.8-3.24z"/>
  <g transform="matrix(.8729 0 0 .8729 50.13 143.2)">
   <path d="m187.2-55.68c0 8.68-7 15.72-15.7 15.73-8.7 0-15.7-7.03-15.7-15.71v-0.02c0-8.68 7-15.72 15.7-15.73 8.7 0 15.7 7.03 15.7 15.71v0.02z" rx="22.939548" ry="22.939548" cy="264.3577" cx="296.35416" type="arc" fill="#fff"/>
   <g transform="translate(-289.6 99.07)">
    <path d="m473.9-167.5c3.5 3.4 5.2 7.7 5.2 12.8 0 5-1.7 9.2-5.1 12.6-3.7 3.6-8 5.4-12.9 5.4s-9.1-1.8-12.7-5.3c-3.5-3.6-5.3-7.8-5.3-12.7 0-5 1.8-9.2 5.3-12.8 3.5-3.5 7.7-5.3 12.7-5.3s9.3 1.8 12.8 5.3zm-23.1 2.3c-3 3-4.5 6.5-4.5 10.5s1.5 7.4 4.4 10.3 6.4 4.4 10.4 4.4c4.1 0 7.6-1.5 10.5-4.4 2.9-2.7 4.3-6.2 4.3-10.3 0-4.2-1.5-7.7-4.3-10.5-2.9-2.9-6.4-4.3-10.5-4.3s-7.5 1.4-10.3 4.3zm7.7 8.7c-0.4-1-1.1-1.5-2-1.5-1.6 0-2.4 1.1-2.4 3.2 0 2.2 0.8 3.2 2.4 3.2 1 0 1.8-0.5 2.2-1.5l2.2 1.2c-1 1.8-2.6 2.8-4.7 2.8-1.6 0-2.9-0.5-3.9-1.5-0.9-1-1.4-2.4-1.4-4.1 0-1.8 0.5-3.1 1.5-4.1s2.2-1.5 3.7-1.5c2.3 0 3.8 0.8 4.8 2.6l-2.4 1.2zm10.4 0c-0.5-1-1.1-1.5-2-1.5-1.6 0-2.4 1.1-2.4 3.2 0 2.2 0.8 3.2 2.4 3.2 1.1 0 1.8-0.5 2.2-1.5l2.3 1.2c-1.1 1.8-2.7 2.8-4.8 2.8-1.6 0-2.9-0.5-3.8-1.5-1-1-1.5-2.4-1.5-4.1 0-1.8 0.5-3.1 1.5-4.1s2.2-1.5 3.8-1.5c2.2 0 3.8 0.8 4.7 2.6l-2.4 1.2z"/>
   </g>
  </g>
  <path d="m297.3 74.91h-116.2c-1.3 0-2.3 1.02-2.3 2.26v39.53c0 0.2 0.2 0.5 0.5 0.5h119.7c0.3 0 0.6-0.3 0.6-0.5v-39.53c0-1.24-1.1-2.26-2.3-2.26zm-116.2 1.02h116.2c0.7 0 1.2 0.56 1.2 1.24v27.43h-83c-3.1 5.5-8.9 9.2-15.7 9.2-6.7 0-12.6-3.7-15.6-9.2h-4.4v-27.43c0-0.68 0.6-1.24 1.3-1.24z"/>
  <g enable-background="new    " fill="#fff">
   <path d="m265.6 112.9c0.1 0.1 0.2 0.3 0.3 0.4 0.2 0.1 0.3 0.1 0.5 0.2h0.6 0.4c0.1 0 0.3-0.1 0.4-0.1l0.3-0.3c0.1-0.1 0.2-0.2 0.2-0.4s-0.1-0.3-0.2-0.4-0.3-0.2-0.5-0.3-0.4-0.1-0.6-0.2-0.5-0.1-0.7-0.2c-0.3 0-0.5-0.1-0.7-0.2-0.3-0.1-0.5-0.2-0.7-0.4-0.2-0.1-0.3-0.3-0.4-0.5s-0.2-0.5-0.2-0.8 0.1-0.6 0.2-0.9l0.6-0.6c0.2-0.2 0.5-0.3 0.8-0.4s0.6-0.1 0.9-0.1 0.7 0 1 0.1 0.6 0.2 0.8 0.4c0.3 0.2 0.5 0.4 0.6 0.7 0.2 0.2 0.2 0.6 0.2 1h-1.4c0-0.2 0-0.4-0.1-0.5-0.1-0.2-0.2-0.3-0.3-0.4-0.1 0-0.2-0.1-0.4-0.1-0.1 0-0.3-0.1-0.5-0.1-0.1 0-0.2 0.1-0.3 0.1-0.2 0-0.3 0-0.4 0.1s-0.1 0.2-0.2 0.2c-0.1 0.1-0.1 0.3-0.1 0.4s0 0.2 0.1 0.3c0 0.1 0.1 0.2 0.3 0.2 0.1 0.1 0.3 0.2 0.6 0.2 0.2 0.1 0.6 0.2 1 0.3 0.1 0 0.3 0.1 0.5 0.1 0.2 0.1 0.5 0.2 0.7 0.4 0.2 0.1 0.4 0.3 0.5 0.5 0.2 0.3 0.3 0.6 0.3 1 0 0.3-0.1 0.5-0.2 0.8s-0.3 0.5-0.5 0.7c-0.3 0.2-0.6 0.3-0.9 0.4s-0.7 0.2-1.2 0.2c-0.4 0-0.7-0.1-1.1-0.2-0.3 0-0.6-0.2-0.9-0.4-0.2-0.2-0.5-0.4-0.6-0.7-0.2-0.3-0.2-0.7-0.2-1.1h1.4c0 0.2 0 0.4 0.1 0.6z"/>
   <path d="m273.9 107.9l2.5 6.6h-1.6l-0.5-1.5h-2.5l-0.5 1.5h-1.5l2.6-6.6h1.5zm0.1 4.1l-0.9-2.5-0.9 2.5h1.8z"/>
  </g>
  <g enable-background="new    " fill="#fff">
   <path d="m239.2 107.9c0.3 0 0.6 0 0.8 0.1 0.3 0 0.5 0.1 0.7 0.2 0.2 0.2 0.4 0.3 0.5 0.5s0.1 0.5 0.1 0.8c0 0.4-0.1 0.6-0.2 0.9-0.2 0.2-0.4 0.4-0.7 0.5 0.4 0.1 0.7 0.3 0.9 0.6s0.3 0.7 0.3 1.1c0 0.3 0 0.6-0.2 0.9-0.1 0.2-0.3 0.4-0.5 0.6-0.2 0.1-0.5 0.2-0.8 0.3-0.2 0.1-0.5 0.1-0.8 0.1h-3.3v-6.6h3.2zm-0.2 2.7c0.3 0 0.5-0.1 0.6-0.2 0.2-0.1 0.3-0.3 0.3-0.6 0-0.2 0-0.3-0.1-0.4s-0.1-0.2-0.2-0.2c-0.1-0.1-0.2-0.1-0.3-0.2h-0.4-1.4v1.6h1.5zm0.1 2.8c0.1 0 0.3 0 0.4-0.1 0.1 0 0.2 0 0.3-0.1s0.2-0.1 0.3-0.3c0-0.1 0.1-0.2 0.1-0.4 0-0.3-0.1-0.6-0.3-0.7-0.2-0.2-0.5-0.2-0.8-0.2h-1.6v1.8h1.6z"/>
   <path d="m241.9 107.9h1.6l1.6 2.6 1.5-2.6h1.7l-2.5 4.1v2.5h-1.5v-2.6l-2.4-4z"/>
  </g>
  <g transform="matrix(.6250 0 0 .6250 391.2 176.9)">
   <path d="m-175-139.1c0 9.4-7.6 17-17 17s-17.1-7.6-17.1-17 7.6-17.1 17-17.1 17.1 7.6 17.1 17.1z" rx="29.209877" ry="29.209877" cy="252.08646" cx="475.97119" type="arc" fill="#fff"/>
   <g transform="translate(-23.95 -89.73)">
    <path d="m-168.2-68.06c-5.2 0-9.6 1.81-13.2 5.42-3.6 3.73-5.5 8.15-5.5 13.25 0 5.11 1.9 9.5 5.5 13.17 3.7 3.67 8.1 5.5 13.2 5.5s9.6-1.85 13.3-5.55c3.6-3.52 5.4-7.89 5.4-13.12 0-5.22-1.8-9.64-5.4-13.25-3.7-3.61-8.1-5.42-13.3-5.42zm0 3.36c4.3 0 7.9 1.5 10.8 4.49 3 2.95 4.5 6.56 4.5 10.82 0 4.3-1.5 7.86-4.4 10.69-3.1 3.05-6.7 4.58-10.9 4.58-4.1 0-7.7-1.51-10.8-4.53-3-3.02-4.5-6.6-4.5-10.74 0-4.13 1.5-7.74 4.6-10.82 2.9-2.99 6.5-4.49 10.7-4.49z"/>
    <path d="m-176.5-52.02c0.7-4.7 4.1-7.21 8.2-7.21 6 0 9.6 4.33 9.6 10.09 0 5.63-3.9 10-9.7 10-4 0-7.6-2.46-8.2-7.3h4.7c0.1 2.51 1.7 3.4 4.1 3.4 2.6 0 4.3-2.47 4.3-6.24 0-3.95-1.4-6.04-4.2-6.04-2.1 0-3.9 0.74-4.2 3.3l1.3-0.01-3.7 3.7-3.7-3.7 1.5 0.01z"/>
   </g>
  </g>
  <circle cy="90.22" cx="242.6" r="10.81" fill="#fff"/>
  <path d="m245.7 87.1c0-0.42-0.3-0.76-0.8-0.76h-4.7c-0.5 0-0.8 0.34-0.8 0.76v4.77h1.3v5.65h3.7v-5.65h1.3v-4.77z"/>
  <circle cy="84.08" cx="242.5" r="1.632"/>
  <path fill-rule="evenodd" clip-rule="evenodd" d="m242.5 78.32c-3.2 0-5.9 1.13-8.2 3.38-2.3 2.34-3.4 5.1-3.4 8.29s1.1 5.93 3.4 8.22 5.1 3.49 8.2 3.49c3.2 0 6-1.2 8.4-3.52 2.2-2.19 3.3-4.93 3.3-8.19 0-3.27-1.1-6.03-3.4-8.29-2.2-2.25-5-3.38-8.3-3.38zm0.1 2.1c2.6 0 4.9 0.93 6.7 2.8 1.9 1.85 2.8 4.1 2.8 6.77 0 2.68-0.9 4.91-2.7 6.68-2 1.9-4.2 2.86-6.8 2.86s-4.9-0.95-6.8-2.83c-1.9-1.89-2.8-4.13-2.8-6.71 0-2.59 0.9-4.85 2.8-6.77 1.9-1.87 4.1-2.8 6.8-2.8z"/>
 </g>
</svg>
