<?xml version="1.0" encoding="UTF-8" standalone="no"?>
<svg xmlns:rdf="http://www.w3.org/1999/02/22-rdf-syntax-ns#" xmlns="http://www.w3.org/2000/svg" xml:space="preserve" height="136" width="189" version="1.1" y="0px" x="0px" xmlns:cc="http://creativecommons.org/ns#" enable-background="new 0 0 189.947 146.115" viewBox="0 0 189.21072 136.31603" xmlns:dc="http://purl.org/dc/elements/1.1/"><g opacity=".7" transform="translate(.305 -1.66)"><path stroke="#fff" stroke-width=".711" d="m0.56 54.1v3.45-3.5z" fill="none"/></g><path d="m65.8 132v-31c0-6.27 5.08-11.3 11.3-11.3h36.3c6.27 0 11.4 5.08 11.4 11.3v31.2h-58.5z" fill="#808080"/><path d="m145 135c0 0.54-8.69 0.978-19.4 0.978h-62.1c-10.7 0-19.4-0.438-19.4-0.978v-2.68c0-0.539 8.69-0.977 19.4-0.977h62.1c10.7 0 19.4 0.438 19.4 0.977v3z" fill="#e3e3e3"/><path d="m179 1.73h-168c-4.05 0-7.34 3.11-7.34 6.96v102h183v-102c0-3.5-4-6.61-8-6.61z" fill="#fff"/><g transform="translate(.305 -1.66)" fill="#ffb700"><rect y="50.5" x="17.3" width="15.6" height="58.3"/><rect y="74.6" x="40.5" width="15.6" height="34.2"/><rect y="57.7" x="63.6" width="15.6" height="51.1"/><rect y="50.5" x="86.8" width="15.6" height="58.3"/><rect y="68.9" x="110" width="15.6" height="40"/><rect y="43.2" x="133" width="15.6" height="65.6"/><rect y="36.9" x="156" width="15.6" height="71.9"/></g><rect y="14.1" width="14.3" height="3.24" x="72.7" fill="#d71b29"/><rect y="14.1" width="45.3" height="3.24" x="18.2" fill="#d71b29"/><g opacity=".32" transform="translate(.305 -1.66)"><polygon points="185 47.6 142 79.5 110 72.3 71.6 92.5 41.2 78.5 8.7 111 4.1 107 39.8 70.7 71.5 85.2 109 65.4 140 72.5 181 42.4" fill="#d71b29"/></g><g stroke="#bab9b9" stroke-width="2.44" transform="translate(.305 -1.66)" fill="none"><path d="m17.9 29.4h45.7-45.7z"/><path d="m25.5 37.5h46.3-46.3z"/><path d="m77.5 37.5h12.1-12.1z"/><path d="m72.4 29.4h27-27z"/></g><g transform="translate(.305 -1.66)" fill="#d71b29"><circle cy="19.1" cx="133" r="4.06"/><circle cy="76" cx="40.8" r="5.55"/><circle cy="68.9" cx="110" r="5.55"/><circle cy="52.1" cx="172" r="5.55"/></g><circle cy="17.4" cx="149" r="4.06" fill="#002e3f"/><circle cy="17.4" cx="165" r="4.06" fill="#ffb700"/><path stroke="#000" stroke-width=".813" d="m10.6 0.407c-5.67 0-10.3 4.46-10.3 9.94l0.00683 95.6c0.00683 2.75 4.47 7.19 10.1 7.19h168c5.63 0 10.3-4.35 10.4-7.06l0.0508-95.7c0.003-5.48-4.61-9.94-10.3-9.94zm0.34 6.26h168c2.4 0 4.36 1.79 4.36 3.98l-0.002 93.5c-0.002 1.12-2.11 2.71-4.51 2.71h-168c-2.4 0-4.49-1.37-4.49-2.45l1.08-94.4c0-2.2 1.96-3.98 4.36-3.98z" fill="#e3e3e3"/></svg>
