<?xml version="1.0" encoding="UTF-8" standalone="no"?>
<svg xmlns:rdf="http://www.w3.org/1999/02/22-rdf-syntax-ns#" xmlns="http://www.w3.org/2000/svg" version="1.1" xmlns:cc="http://creativecommons.org/ns#" xmlns:dc="http://purl.org/dc/elements/1.1/" viewBox="0 0 836 521">
 <path fill="#dcd3ba" d="m710 228 62.9 231c0.0643 0.236-0.237 0.441-0.53 0.441h-709c-0.294 0-0.592-0.205-0.53-0.441l62.1-231z"/>
 <path opacity=".486" fill="#89d375" d="m691 456c0-1.11-3.32-4.22-5.07-4.73-2.32-0.686-9.22-4.82-9.22-5.52 0-0.31-0.402-0.577-0.893-0.594-2.66-0.091-10.2-9.28-11.9-14.5-0.65-1.99-1.6-3.06-3.65-4.11-1.52-0.777-3.27-1.41-3.88-1.41-0.612 0-2.79-0.89-4.85-1.98s-5.67-2.57-8.02-3.29c-6.71-2.05-10-3.91-14.7-8.25-3.34-3.1-4.65-4.93-5.69-7.94-0.742-2.15-1.36-4.42-1.37-5.05-0.0129-0.629-0.947-2.42-2.08-3.98s-2.28-3.54-2.55-4.39c-0.272-0.857-0.794-1.56-1.16-1.56s-0.666-0.631-0.666-1.4c0-1.9-6.76-8.34-10.7-10.2-1.77-0.835-3.47-1.94-3.79-2.45-0.314-0.514-1.76-0.934-3.21-0.934-4.63-0.0009-20.9-4.91-20.9-6.31 0-0.317-0.959-1.65-2.13-2.96s-2.34-3.04-2.59-3.84c-0.253-0.797-1.7-3.48-3.23-5.97-2.68-4.38-2.77-4.72-2.78-11.1-0.01-6.09-0.731-9.77-2.5-12.8-0.385-0.655-3.27-2.44-6.41-3.96s-6.62-3.37-7.73-4.1c-1.69-1.12-4.09-1.42-14.6-1.85-13.4-0.548-19.6-1.85-23.8-4.94-1.08-0.796-2.23-1.45-2.56-1.45s-1.01-1.12-1.5-2.5c-0.497-1.38-1.37-2.5-1.93-2.5-0.564 0-1.03-0.315-1.03-0.699 0-0.92-7.8-8.59-8.74-8.59-0.619 0-8.47-3.76-13-6.24-0.786-0.427-3.36-1.15-5.71-1.6-4.77-0.92-10.3-3.37-10.9-4.8-0.197-0.513-0.725-0.932-1.17-0.932-1.4 0-4.5-4.52-5.02-7.33-0.277-1.48-0.528-7.88-0.558-14.2-0.0534-11.4-0.0832-11.6-2.06-14.7-1.1-1.74-3.39-4.57-5.09-6.29s-4.62-4.71-6.48-6.64c-1.87-1.93-4.83-4.83-6.59-6.45l-2.79-3.84h275l31.1 115c16.9 62.5 29.8 114 29.9 114 0.022 0.098-18.1 0.179-40.3 0.179s-40.4-0.274-40.4-0.61z"/>
 <path fill="#f7fd9f" d="m553 228h45l9.93 231h-65z"/>
 <g fill="#fff" transform="translate(68.6,-890)">
  <path d="m185 230-47 165l616 1-10-40-549 4.81 30-131z" transform="translate(-68.6,890)"/>
 </g>
 <path d="m710 228 62.9 231c0.0643 0.236-0.237 0.441-0.53 0.441h-709c-0.294 0-0.592-0.205-0.53-0.441l62.1-231z" fill="none"/>
 <path opacity=".532" d="m710 228 62.9 231c0.0643 0.236-0.237 0.441-0.53 0.441h-709c-0.294 0-0.592-0.205-0.53-0.441l62.1-231z" stroke="#969696" stroke-width="10" fill="none"/>
 <path d="m414 3c-64 0-116 51.8-116 116 0 20.1 5.13 39 14.1 55.4l102 170 101-170c8.99-16.5 14.1-35.3 14.1-55.4 0-63.8-51.7-116-116-116zm-1.29 67.2c0.43-0.0109 0.855 0 1.29 0 27.7 0 50.1 22.4 50.1 50.1s-22.4 50.1-50.1 50.1-50.1-22.4-50.1-50.1c0-27.2 21.7-49.4 48.8-50.1z" stroke="#fff" stroke-width="6.69" fill="#e52626"/>
</svg>
