<?xml version="1.0" encoding="UTF-8" standalone="no"?>
<svg xmlns:rdf="http://www.w3.org/1999/02/22-rdf-syntax-ns#" xmlns="http://www.w3.org/2000/svg" height="315" width="533" version="1.1" xmlns:cc="http://creativecommons.org/ns#" viewBox="0 0 533.27338 314.64386" xmlns:dc="http://purl.org/dc/elements/1.1/">
 <g fill="#fff">
  <rect y="138" width="163" x="364" height="170"/>
  <rect y="138" width="163" x="188" height="170"/>
  <rect y="138" width="163" x="5.51" height="170"/>
 </g>
 <path fill="#2ca249" d="m373 215 16-28.9 17.2 65.7 16.1-12 16.7-56.9 15.2-21 16.8 51.8 16.5-17.4 16-48.2 15.8 57.5v101h-147z" fill-rule="evenodd"/>
 <path fill="#f58020" d="m373 238 15.8-7.39 16.3 34 17.2 14 16.2-39 16.2-44.4 16.3 35.3 15.6-7.24 16.4-21.7 16.4 31.3v73h-147z" fill-rule="evenodd"/>
 <rect height="169" width="162" stroke="#000" y="139" x="6.5" stroke-width="3" fill="none"/>
 <text style="word-spacing:0px;letter-spacing:0px" xml:space="preserve" font-size="119px" y="95.622795" x="55.634644" font-family="Sans" line-height="125%" fill="#ffffff"><tspan y="95.622795" x="55.634644">pandas</tspan></text>
 <g fill="#1a78b6">
  <rect y="163" width="16.5" x="15.3" height="60.2"/>
  <rect y="152" width="16.5" x="72.3" height="71.6"/>
  <rect y="191" width="16.5" x="53.5" height="32.6"/>
  <rect y="223" width="16.5" x="34.2" height="23.5"/>
  <rect y="223" width="16.5" x="90.9" height="59.7"/>
  <rect y="223" width="16.5" x="109" height="15.1"/>
  <rect y="222" width="16.5" x="128" height="56.9"/>
  <rect y="180" width="16.5" x="147" height="44"/>
 </g>
 <g stroke-width="10" fill="none">
  <g stroke-linejoin="round">
   <path stroke="#f58020" d="m195 151 22.4 58.6 20-63.9 21.4 124 20.6-119 22.5 121 26.6-79.1 18-18.9"/>
   <path stroke="#d82a2a" d="m192 149 27.6 18.4 18.9 30.5 20.1-6.03 20.6 62.5 21.3-6.89 21.6-63.2 24.3-20.7"/>
   <path stroke="#2ca249" d="m190 285 25.8 2.07 21.4-125 21.4 133 21.1-19.5 21.6-62.9 20.4 68.2 24.9-65.6"/>
  </g>
  <path stroke="#1a78b6" d="m195 281 24.6-114 17.2 83.2 43.9 48.4 35.7-33.9 28.4-66"/>
 </g>
 <path fill="#1a78b6" d="m373 273 17.1 0.701 16.3 7.51 15.6 14.7 16-10 16.6-25.8 16.3 11.7 15.6 17.1 17.1-45.8 15.8 12.2v51.2h-147z" fill-rule="evenodd"/>
 <rect height="169" width="162" stroke="#000" y="139" x="188" stroke-width="3" fill="none"/>
 <rect height="169" width="162" stroke="#000" y="138" x="365" stroke-width="3" fill="none"/>
</svg>
