<?xml version="1.0" encoding="UTF-8" standalone="no"?>
<svg xmlns:rdf="http://www.w3.org/1999/02/22-rdf-syntax-ns#" xmlns="http://www.w3.org/2000/svg" version="1.1" xmlns:cc="http://creativecommons.org/ns#" xmlns:dc="http://purl.org/dc/elements/1.1/" viewBox="0 0 400 516">
 <defs>
  <radialGradient id="radialGradient4191" gradientUnits="userSpaceOnUse" cy="657" cx="1.57e3" gradientTransform="matrix(-.0586 .0994 -.204 -.12 390 135)" r="678">
   <stop stop-color="#4a5049" offset="0"/>
   <stop stop-color="#4a5049" stop-opacity="0" offset="1"/>
  </radialGradient>
 </defs>
 <path fill-rule="evenodd" fill="url(#radialGradient4191)" d="m108 37.5-108 182l256 123 99-113z"/>
 <g stroke-width="7.63">
  <g transform="translate(0 -55.9)" stroke-linecap="round" fill="none">
   <path d="m96.8 234c-8.3 288 103 99 137 150 46 71-50 155-44 183" stroke="#dd959d"/>
   <path d="m55.4 237c19.3 124 152 177 158 232 3.19 29.2-60.9 43.8-18.2 96.3" stroke="#9ba9b2"/>
   <path d="m132 234c-8.55 159 96.8 163 96.9 232 0.0324 29.6-59.8 76.7-54.1 101" stroke="#ebbf9b"/>
   <path d="m194 281c-6.51 87.8-55 71.5-83.3 93.6-16.9 13.2-25 37.3 6.98 49.8 46.9 18.3 145-12.2 146 38.1 0.719 52.9-103-4.96-106 46.5-2.1 31.3 40.4 53.9 72.4 55.6" stroke="#bfa176"/>
   <path d="m223 281c-36 180 85 156-15 285" stroke="#a95f49"/>
   <path d="m293 281c-14.8 58-145 90.7-137 157 6.08 48.1 61.1 129 61.1 129" stroke="#768e93"/>
   <path d="m355 280c-8.42 92-135 73-163 138-19.3 45.7 32.5 49.8 11.1 150" stroke="#ebd467"/>
   <path d="m317 281s3.72 145-35.1 142c-38.8-3.46-25.2-138-102-47-76.7 91.4 125 115 35 190" stroke="#a0a96a"/>
  </g>
  <path stroke-linejoin="round" d="m170 178h-121c-30.1-3.88-22.5-51 6.05-47.9-24.7-16.7-4.65-54 21.4-43.7-18.3-34.4 22.9-50.7 36.7-33-12.6-25.3 20.6-48.3 41.9-24.7-1.28-23.5 36.2-37.8 48.8-7.91 11.1-28.6 50-17.1 47.7 7.44 20.3-20.7 50.1-4.52 44.9 21.9 26.2-12.5 47.5 10.4 35.4 35.8 26.1-7.68 43.6 25.8 20.9 44 23.8-0.516 39 34.6 6.98 49.5 19.4 11.7 15.3 40.5-7.91 45.1h-177c-29.4-5.34-24.9-40.4-4.65-46.5z" fill-rule="evenodd" stroke="#ede6d8" fill="#4a5049"/>
  <g stroke-linejoin="round" transform="translate(0 -55.9)" stroke="#ede6d8" fill="none">
   <path d="m91.4 166c-0.228-29.9 26.2-44.1 46.7-20.7-4.55-30.2 37-41.1 51-11.5 8.36-33.5 46.4-23.8 47 2.96 15.2-25.9 48.8-15.9 45.7 10.9 20-24 44-1.31 38.2 21.4"/>
   <path d="m83.2 203c3.27-29.5 38.7-33.6 47-4.93 4.33-30.2 42.9-33.5 49.7-2.63 9.34-26.3 39.8-34 53.3 0 10.6-33.8 47.2-24.1 48 3.95 16.7-28.6 45.3-19.1 48.7 6.25"/>
   <path d="m195 252c1.41-26.3 36.9-30.1 42.4-3.26 9.61-32.7 42.3-29.5 49.7 0 7.02-24.9 38.9-20.6 43.1 0.465"/>
  </g>
 </g>
</svg>
