<?xml version="1.0" encoding="UTF-8" standalone="no"?>
<svg xmlns:rdf="http://www.w3.org/1999/02/22-rdf-syntax-ns#" xmlns="http://www.w3.org/2000/svg" version="1.1" xmlns:cc="http://creativecommons.org/ns#" xmlns:xlink="http://www.w3.org/1999/xlink" viewBox="0 0 400 400" xmlns:dc="http://purl.org/dc/elements/1.1/">
 <g id="g4148">
  <path id="path4142" stroke="#f9b700" stroke-width="6" fill="none" d="m144 32.3v334"/>
  <use xlink:href="#path4142" transform="translate(112)" height="100%" width="100%" y="0" x="0" fill="none"/>
 </g>
 <use xlink:href="#g4148" transform="matrix(0 -1 1 0 .836 399)" height="100%" width="100%" y="0" x="0" fill="none"/>
 <rect ry="9.72" height="363" width="364" stroke="#fff" stroke-linecap="round" y="17.3" x="17.8" stroke-width="8" fill="none"/>
 <g id="g4925" transform="translate(7.07 167)">
  <use xlink:href="#g4905" transform="translate(224 -.001)" height="100%" width="100%" y="0" x="0"/>
  <use xlink:href="#g4905" transform="translate(115 2.12)" height="100%" width="100%" y="0" x="0"/>
  <g id="g4905">
   <g transform="translate(-7.07 -169)">
    <g id="g4776">
     <path id="path4772" opacity=".5" d="m73.5 45.7v83.3" stroke="#fff" stroke-width="3" fill="none"/>
     <use xlink:href="#path4772" transform="translate(29)" height="100%" width="100%" y="0" x="0"/>
    </g>
    <use xlink:href="#g4776" transform="matrix(0 1 -1 0 175 -.651)" height="100%" width="100%" y="0" x="0"/>
   </g>
   <path fill="#f59" d="m54.9-108c0.438 3.65-5.22 6.39-6.56 2.23-0.639-3.01-0.848-6.99 1.53-9.29 3.42-2.95 5.87 2.47 5.13 5.43-0.0145 0.543-0.051 1.09-0.105 1.63zm-2.11-4.94c-3.07-2.43-4.24 5.27-1.97 6.8 3.27 0.663 2.3-4.94 1.97-6.8z"/>
   <path fill="#f59" d="m86.8-78.2c0.801 3.31-3.63 0.577-3.42 3.61-0.0545 2.29-3.75 1.86-1.77-0.582 0.751-2.62-6.08 0.953-4.59-3.14 0.727-2.62 0.59-6.25 2.54-8.11 2.67-1.83 0.238 3.39 0.274 4.74-0.779 2.11-1.18 4.73 1.97 3.56 2.15-1.01 0.223-7.87 4.16-6.25 0.264 2.39-3.99 7.32 0.832 6.18z"/>
   <path fill="#f59" d="m114-77.3c-0.915 3.22-4.89 3.7-7.7 3.18-0.338-3.53 2.85-0.191 4.61-1.95 2.13-2.99-1.95-4.47-4.26-3.22 0.708-2.57-1.71-8.19 2.84-6.63 1.74 0.0625 6.27-0.136 4.35 2.43-1.82-0.474-7-0.406-4.49 2.07 2.21-0.0029 5.57 1.27 4.65 4.11z"/>
   <path fill="#f59" d="m55.4-50.2c2.25 4.57-5.09 7.5-6.68 2.66-2.14-3.85 0.0825-10.1 4.92-10.2 2.5 1.3-4.81 3.47-3.57 6.78 1.38-1.62 4.58-1.28 5.33 0.8zm-1.5 1.25c-1.36-4.55-4.88 2.62-0.7 1.86 0.606-0.394 0.823-1.18 0.7-1.86z"/>
   <path fill="#f59" d="m86-56.8c-1.03 3.99-2.29 7.93-3.82 11.8-4.64 0.853 0.378-4.15 0.478-6.38 0.798-2 2.13-4.75-1.23-3.59-1.74 0.319-3.74 1.14-3.46-1.44 2.62-0.575 5.38-0.891 8.03-0.352z"/>
   <path fill="#f59" d="m114-49.4c0.601 3.88-5.46 6.33-6.63 1.96-0.749-2.29 2.83-3.86-0.108-5.52-2.28-4.15 5.43-7.5 6.06-2.35 0.293 2.04-2.02 3.52 0.451 5.04l0.163 0.433 0.065 0.443zm-2.51-5.2c-0.72-4.27-4.57 2.03-0.696 1.56 0.501-0.341 0.702-0.981 0.696-1.56zm0.384 5.12c-0.794-4.52-5.02 2.68-0.952 1.87 0.581-0.434 0.943-1.14 0.952-1.87z"/>
   <path fill="#f59" d="m82.4-116c-0.372 4.12-0.0218 8.26 0.176 12.4-2.5 0.631-2.57-0.975-2.21-3.14 0.309-2.94-0.742-7.02-0.0452-9.21 0.693 0.0299 1.39-0.002 2.08-0.036z"/>
   <path fill="#f59" d="m114-106c-0.197 1.19-0.0192 2.83-1.71 2.27h-6.35c-0.475-2.43 1.94-3.84 3.02-5.74 1.43-1.57 4.47-5.33 0.0794-4.46-2.12 1.39-4.14-0.773-1.56-1.72 3.23-1.9 8.27 1.39 4.94 4.7-1.15 1.99-5.59 6.24-0.656 5.28 0.757-0.0443 1.51-0.155 2.24-0.345z"/>
   <path fill="#f59" d="m55.2-78.2c0.0436 3.54-4.9 4.71-7.25 3.94-0.408-3.15 4.05-0.913 4.42-3.89 0.564-2.62-5.4-2.74-1.2-4.46 2.67-2.17-1.59-2.97-3.01-1.61-1.01-3.75 7.11-3.62 5.87 0.172-1.01 1.66-2.03 2.47 0.4 3.36 0.697 0.62 0.803 1.61 0.772 2.48z"/>
  </g>
 </g>
 <use xlink:href="#g4925" transform="translate(0,112)" height="100%" width="100%" y="0" x="0"/>
 <use xlink:href="#g4925" transform="translate(0,226)" height="100%" width="100%" y="0" x="0"/>
 <g stroke-linejoin="round" stroke="#000" stroke-width="8" fill="none">
  <path d="m101 94.7c1.75 14.6-20.9 25.6-26.2 8.94-2.56-12-3.39-28 6.13-37.2 13.7-11.8 23.5 9.87 20.5 21.7-0.0581 2.17-0.204 4.34-0.42 6.5zm-8.45-19.8c-12.3-9.71-16.9 21.1-7.88 27.2 13.1 2.65 9.2-19.7 7.88-27.2z"/>
  <path d="m221 210c3.26 13.3-14.4 2.3-13.6 14.3 0.0636 9.3-15.1 7.73-7.14-2.16 3-10.5-24.3 3.81-18.3-12.6 2.57-10.5 2.81-23.9 9.41-32.1 11-8.18 2.58 11.1 2.23 16.9-2.58 8.45-6.36 21.1 7.51 16 8.63-3.93 0.901-31.5 16.6-25 1.06 9.56-16 29.3 3.33 24.7z"/>
  <path d="m329 213c-3.66 12.9-19.5 14.8-30.8 12.7-1.12-13.2 9.48-2.5 17.2-6.74 10.9-11.1-5.95-19.8-15.8-13.9 2.83-10.3-6.83-32.8 11.4-26.5 6.96 0.25 25.1-0.546 17.4 9.73-7.28-1.9-28-1.62-18 8.29 8.83-0.007 22.3 5.06 18.6 16.4z"/>
  <path d="m101 320c9 18.3-20.4 30-26.7 10.6-8.54-15.4 0.324-40.6 19.7-41 11.1 3.6-12.2 10.3-12.2 18.2-3.14 7.28-2.71 10.4 4.76 5.14 5.5-1.07 12.6 1.31 14.5 7.04zm-6.02 4.99c-5.44-18.2-19.5 10.5-2.8 7.46 2.42-1.58 3.29-4.73 2.8-7.46z"/>
  <path d="m214 293c-4.13 16-9.16 31.7-15.3 47-18.5 3.41 1.51-16.6 1.91-25.5 3.19-7.99 8.51-19-4.92-14.4-6.79 0.908-15.1 4.92-13.8-5.76 10.5-2.3 21.5-3.57 32.1-1.41z"/>
  <path d="m326 321c2.41 15.5-21.9 25.3-26.5 7.84-3-9.15 11.3-15.4-0.432-22.1-9.13-16.6 21.7-30 24.2-9.42 1.53 8.15-8.31 14.1 1.8 20.2l0.652 1.73 0.26 1.77zm-10-20.8c-2.88-17.1-18.3 8.11-2.78 6.24 2-1.36 2.81-3.92 2.78-6.24zm1.54 20.5c-3.2-18.3-20.1 10.8-3.81 7.47 2.32-1.73 3.77-4.57 3.81-7.47z"/>
  <path d="m206 62.6c-1.51 16.5-0.0723 33.1 0.704 49.5-8.69 1.9-11.2-1.87-8.86-10.6 1.33-12.4-2.88-29.4-0.16-38.8 2.77 0.119 5.55-0.0072 8.32-0.144z"/>
  <path d="m328 103c-1.12 4.05 0.502 11.3-5.96 9.09h-26.3c-1.86-9.69 7.75-15.4 12.1-22.9 5.73-6.27 17.9-21.3 0.318-17.8-8.49 5.55-16.6-3.09-6.24-6.86 10.7-5.68 30.7 1.53 22 15.5-3.55 7.51-16.1 18.3-13.8 24.2 5.95 0.728 12.1 0.356 17.9-1.11z"/>
  <path d="m105 210c0.16 14.2-19.5 18.8-29 15.8-1.57-12.6 16.2-3.71 17.7-15.6 2.26-10.5-21.6-10.9-4.8-17.8 10.7-8.66-6.34-11.9-12-6.42-4.05-15 28.4-14.5 23.5 0.688-4.35 6.71-7.6 9.79 1.6 13.5 2.79 2.48 3.21 6.43 3.09 9.92z"/>
 </g>
 <g fill="#d4aa00">
  <path d="m101 94.7c1.75 14.6-20.9 25.6-26.2 8.94-2.56-12-3.39-28 6.13-37.2 13.7-11.8 23.5 9.87 20.5 21.7-0.0581 2.17-0.204 4.34-0.42 6.5zm-8.45-19.8c-12.3-9.71-16.9 21.1-7.88 27.2 13.1 2.65 9.2-19.7 7.88-27.2z"/>
  <path d="m221 210c3.26 13.3-14.4 2.3-13.6 14.3 0.0636 9.3-15.1 7.73-7.14-2.16 3-10.5-24.3 3.81-18.3-12.6 2.57-10.5 2.81-23.9 9.41-32.1 11-8.18 2.58 11.1 2.23 16.9-2.58 8.45-6.36 21.1 7.51 16 8.63-3.93 0.901-31.5 16.6-25 1.06 9.56-16 29.3 3.33 24.7z"/>
  <path d="m329 213c-3.66 12.9-19.5 14.8-30.8 12.7-1.12-13.2 9.48-2.5 17.2-6.74 10.9-11.1-5.95-19.8-15.8-13.9 2.83-10.3-6.83-32.8 11.4-26.5 6.96 0.25 25.1-0.546 17.4 9.73-7.28-1.9-28-1.62-18 8.29 8.83-0.007 22.3 5.06 18.6 16.4z"/>
  <path d="m101 320c9 18.3-20.4 30-26.7 10.6-8.54-15.4 0.324-40.6 19.7-41 11.1 3.6-12.2 10.3-12.2 18.2-3.14 7.28-2.71 10.4 4.76 5.14 5.5-1.07 12.6 1.31 14.5 7.04zm-6.02 4.99c-5.44-18.2-19.5 10.5-2.8 7.46 2.42-1.58 3.29-4.73 2.8-7.46z"/>
  <path d="m214 293c-4.13 16-9.16 31.7-15.3 47-18.5 3.41 1.51-16.6 1.91-25.5 3.19-7.99 8.51-19-4.92-14.4-6.79 0.908-15.1 4.92-13.8-5.76 10.5-2.3 21.5-3.57 32.1-1.41z"/>
  <path d="m326 321c2.41 15.5-21.9 25.3-26.5 7.84-3-9.15 11.3-15.4-0.432-22.1-9.13-16.6 21.7-30 24.2-9.42 1.53 8.15-8.31 14.1 1.8 20.2l0.652 1.73 0.26 1.77zm-10-20.8c-2.88-17.1-18.3 8.11-2.78 6.24 2-1.36 2.81-3.92 2.78-6.24zm1.54 20.5c-3.2-18.3-20.1 10.8-3.81 7.47 2.32-1.73 3.77-4.57 3.81-7.47z"/>
  <path d="m206 62.6c-1.51 16.5-0.0723 33.1 0.704 49.5-8.69 1.9-11.2-1.87-8.86-10.6 1.33-12.4-2.88-29.4-0.16-38.8 2.77 0.119 5.55-0.0072 8.32-0.144z"/>
  <path d="m328 103c-1.12 4.05 0.502 11.3-5.96 9.09h-26.3c-1.86-9.69 7.75-15.4 12.1-22.9 5.73-6.27 17.9-21.3 0.318-17.8-8.49 5.55-16.6-3.09-6.24-6.86 10.7-5.68 30.7 1.53 22 15.5-3.55 7.51-16.1 18.3-13.8 24.2 5.95 0.728 12.1 0.356 17.9-1.11z"/>
  <path d="m105 210c0.16 14.2-19.5 18.8-29 15.8-1.57-12.6 16.2-3.71 17.7-15.6 2.26-10.5-21.6-10.9-4.8-17.8 10.7-8.66-6.34-11.9-12-6.42-4.05-15 28.4-14.5 23.5 0.688-4.35 6.71-7.6 9.79 1.6 13.5 2.79 2.48 3.21 6.43 3.09 9.92z"/>
 </g>
</svg>
