<?xml version="1.0" encoding="UTF-8" standalone="no"?>
<svg xmlns:rdf="http://www.w3.org/1999/02/22-rdf-syntax-ns#" xmlns="http://www.w3.org/2000/svg" viewBox="0 0 400 400" version="1.1" xmlns:cc="http://creativecommons.org/ns#" xmlns:xlink="http://www.w3.org/1999/xlink" xmlns:dc="http://purl.org/dc/elements/1.1/">
 <g id="g4148">
  <path id="path4142" d="m144 32.3v334" stroke="#f9b700" stroke-width="6" fill="none"/>
  <use xlink:href="#path4142" transform="translate(112)" height="100%" width="100%" y="0" x="0" fill="none"/>
 </g>
 <use xlink:href="#g4148" transform="matrix(0 -1 1 0 .836 399)" height="100%" width="100%" y="0" x="0" fill="none"/>
 <rect ry="9.72" height="363" width="364" stroke="#fff" stroke-linecap="round" y="17.3" x="17.6" stroke-width="8" fill="none"/>
 <circle id="path4177" cx="230" cy="199" r="8.71" stroke="#1873b0" stroke-width="4" fill="none"/>
 <path id="path4181" d="m275 179 16-17.1m-15.9 0.116 16 17" stroke="#b9880f" stroke-width="4" fill="none"/>
 <g id="g4794">
  <g id="g4782">
   <g id="g4776">
    <path id="path4772" opacity=".5" d="m73.5 45.7v83.3" stroke="#fff" stroke-width="3" fill="none"/>
    <use xlink:href="#path4772" transform="translate(29)" height="100%" width="100%" y="0" x="0"/>
   </g>
   <use xlink:href="#g4776" transform="matrix(0 1 -1 0 175 -.651)" height="100%" width="100%" y="0" x="0"/>
  </g>
  <use xlink:href="#g4782" transform="translate(112)" height="100%" width="100%" y="0" x="0"/>
  <use xlink:href="#g4782" transform="translate(224)" height="100%" width="100%" y="0" x="0"/>
 </g>
 <use xlink:href="#g4794" transform="translate(0,112)" height="100%" width="100%" y="0" x="0"/>
 <use xlink:href="#g4794" transform="translate(0,224)" height="100%" width="100%" y="0" x="0"/>
 <use y="0" x="0" xlink:href="#path4177"/>
 <use xlink:href="#path4177" transform="translate(-171 -83)" height="100%" width="100%" y="0" x="0"/>
 <use xlink:href="#path4181" transform="translate(-167 171)" height="100%" width="100%" y="0" x="0"/>
</svg>
