<?xml version="1.0" encoding="UTF-8" standalone="no"?>
<svg xmlns:rdf="http://www.w3.org/1999/02/22-rdf-syntax-ns#" xmlns="http://www.w3.org/2000/svg" viewBox="0 0 1000 1000" version="1.1" xmlns:cc="http://creativecommons.org/ns#" xmlns:xlink="http://www.w3.org/1999/xlink" xmlns:dc="http://purl.org/dc/elements/1.1/">
 <defs>
  <radialGradient id="radialGradient4193" gradientUnits="userSpaceOnUse" cy="1.02e3" cx="954" gradientTransform="matrix(1.22 -.00581 .00575 1.21 -666 -691)" r="500">
   <stop stop-color="#333" offset="0"/>
   <stop stop-color="#999" stop-opacity=".941" offset=".585"/>
   <stop stop-color="#eee" stop-opacity=".941" offset="1"/>
  </radialGradient>
 </defs>
 <rect height="1e3" width="1e3" y="0" x="0" fill="url(#radialGradient4193)"/>
 <ellipse rx="182" ry="238" cy="368" cx="504" fill="#fff"/>
 <g fill-rule="evenodd" fill="#333">
  <path d="m165 230c1.3 14.5 219 87.3 333 87.2 115 0 342-77 332-87-22-17-110-20-155-24-31-66-75-160-105-191-1.69-1.76-47.2 13.4-55.5 17.7-5.48-14.3-39.2-18.5-65.4-15.9-53.8 35.3-93 122-128 190-55.3 2.99-137 8.03-156 23.3z"/>
  <path d="m684 330c27.5 329-344 401-360 5.03l-130 116 137 74.4c-53.6 5.16-108 14.7-146 70.5l-79.1 215c-12.6 72.4 22.6 84 53.2 101l74.2 23.9 12.8 23.2c1.9 9.02 1.48 19 7.91 24.4h509c11.3-8.8 8.02-16.1 10.8-24.1l12.6-25.9 83.4-28c29.5-24.8 53.1-54.1 34.5-115l-61.8-165c-13-61.1-70.8-90.7-155-102l137-74.1z"/>
  <path d="m416 321c28.1 2.23 67.9 5.55 73.3 42.1l35.2 0.36c-3.58-30 45.2-41.9 73.3-42.4 43-0.815 69.6 27.5 73.3 58.6 4.96 41.3-31.7 71.2-63.7 71.9-35.7 0.695-69.2-41-80.5-70.8-3.01-7.97-39.4-7.5-41.3-1.08-9.55 31.6-42.6 68.5-76.9 71.9-35.4 3.5-68.9-31-68-66.9 0.854-32.8 29.5-67.3 75.1-63.6z"/>
 </g>
 <path d="m807 667-595 0.719 21.3 292 549 0.359 24.9-293zm-583 10.7 568 1.02-18.7 262h-530l-19.1-263z" fill-rule="evenodd" fill="#fff"/>
</svg>
